<?xml version="1.0" encoding="UTF-8" standalone="no"?>
<!DOCTYPE svg PUBLIC "-//W3C//DTD SVG 1.1//EN" "http://www.w3.org/Graphics/SVG/1.1/DTD/svg11.dtd">
<svg width="100%" height="100%" viewBox="0 0 218 158" version="1.1" xmlns="http://www.w3.org/2000/svg" xmlns:xlink="http://www.w3.org/1999/xlink" xml:space="preserve" xmlns:serif="http://www.serif.com/" style="fill-rule:evenodd;clip-rule:evenodd;stroke-linejoin:round;stroke-miterlimit:2;">
    <g id="Layer-1" serif:id="Layer 1">
        <path d="M194.275,14.5C194.275,14.5 120.855,10.935 86.525,19C30.126,32.25 31.775,67.75 18.525,62.75C0.078,55.789 15.525,11.8 97.525,7.91C166.071,4.657 194.275,14.5 194.275,14.5" style="fill:rgb(204,204,204);fill-rule:nonzero;"/>
        <path d="M45.24,118.827L63.749,116.582C64.339,121.3 65.927,124.907 68.513,127.402C71.099,129.897 74.229,131.144 77.904,131.144C81.851,131.144 85.174,129.647 87.873,126.653C90.572,123.659 91.922,119.621 91.922,114.54C91.922,109.731 90.629,105.921 88.043,103.108C85.457,100.295 82.304,98.889 78.584,98.889C76.134,98.889 73.208,99.365 69.806,100.318L71.915,84.735C77.087,84.871 81.034,83.748 83.756,81.366C86.478,78.984 87.839,75.82 87.839,71.873C87.839,68.516 86.841,65.839 84.845,63.843C82.849,61.847 80.195,60.849 76.883,60.849C73.617,60.849 70.827,61.983 68.513,64.252C66.199,66.52 64.793,69.832 64.294,74.187L46.669,71.193C47.894,65.159 49.742,60.339 52.215,56.732C54.687,53.125 58.135,50.29 62.558,48.226C66.982,46.162 71.938,45.13 77.427,45.13C86.818,45.13 94.349,48.124 100.02,54.112C104.693,59.012 107.029,64.546 107.029,70.716C107.029,79.472 102.243,86.458 92.67,91.676C98.387,92.901 102.957,95.645 106.382,99.91C109.808,104.174 111.52,109.323 111.52,115.357C111.52,124.113 108.322,131.575 101.925,137.745C95.529,143.915 87.567,147 78.04,147C69.012,147 61.526,144.403 55.583,139.208C49.64,134.014 46.193,127.22 45.24,118.827Z" style="fill-rule:nonzero;"/>
        <path d="M125.05,45.538L161.865,45.538C170.167,45.538 176.496,46.173 180.851,47.443C186.703,49.167 191.716,52.229 195.89,56.63C200.064,61.031 203.239,66.418 205.417,72.792C207.594,79.166 208.683,87.026 208.683,96.371C208.683,104.582 207.663,111.66 205.621,117.603C203.126,124.861 199.565,130.736 194.937,135.227C191.444,138.63 186.726,141.284 180.783,143.189C176.337,144.596 170.394,145.299 162.954,145.299L125.05,145.299L125.05,45.538ZM145.193,62.414L145.193,128.491L160.232,128.491C165.857,128.491 169.918,128.173 172.413,127.538C175.679,126.721 178.39,125.338 180.545,123.387C182.7,121.436 184.458,118.226 185.819,113.758C187.18,109.289 187.86,103.199 187.86,95.486C187.86,87.774 187.18,81.854 185.819,77.725C184.458,73.597 182.552,70.376 180.102,68.062C177.653,65.749 174.545,64.184 170.78,63.367C167.967,62.732 162.455,62.414 154.243,62.414L145.193,62.414Z" style="fill-rule:nonzero;"/>
        <rect x="11.003" y="73.028" width="19.123" height="72.271"/>
        <path d="M30.65,53.875C30.65,59.398 26.173,63.875 20.65,63.875C15.127,63.875 10.65,59.398 10.65,53.875C10.65,48.352 15.127,43.875 20.65,43.875C26.173,43.875 30.65,48.352 30.65,53.875" style="fill-rule:nonzero;"/>
    </g>
</svg>
