<?xml version="1.0" encoding="UTF-8" standalone="no"?>
<!-- Created with Inkscape (http://www.inkscape.org/) -->

<svg
   xmlns:dc="http://purl.org/dc/elements/1.1/"
   xmlns:cc="http://creativecommons.org/ns#"
   xmlns:rdf="http://www.w3.org/1999/02/22-rdf-syntax-ns#"
   xmlns:svg="http://www.w3.org/2000/svg"
   xmlns="http://www.w3.org/2000/svg"
   xmlns:xlink="http://www.w3.org/1999/xlink"
   xmlns:sodipodi="http://sodipodi.sourceforge.net/DTD/sodipodi-0.dtd"
   xmlns:inkscape="http://www.inkscape.org/namespaces/inkscape"
   width="140.994mm"
   height="77.084mm"
   viewBox="0 0 140.994 77.084"
   version="1.1"
   id="svg8"
   inkscape:version="0.92.4 (5da689c313, 2019-01-14)"
   sodipodi:docname="i3d-logo.svg">
  <defs
     id="defs2">
    <linearGradient
       inkscape:collect="always"
       id="linearGradient6590">
      <stop
         style="stop-color:#000000;stop-opacity:1;"
         offset="0"
         id="stop6586" />
      <stop
         style="stop-color:#ffffff;stop-opacity:0.92929292"
         offset="1"
         id="stop6588" />
    </linearGradient>
    <filter
       inkscape:label="Evanescent"
       inkscape:menu="Blurs"
       inkscape:menu-tooltip="Blur the contents of objects, preserving the outline and adding progressive transparency at edges"
       style="color-interpolation-filters:sRGB"
       id="filter4928">
      <feGaussianBlur
         result="result6"
         stdDeviation="3"
         in="SourceGraphic"
         id="feGaussianBlur4922" />
      <feColorMatrix
         values="1 0 0 0 0 0 1 0 0 0 0 0 1 0 0 0 0 0 1 0 "
         result="result7"
         in="SourceGraphic"
         id="feColorMatrix4924" />
      <feComposite
         operator="in"
         in="result6"
         in2="result7"
         id="feComposite4926" />
    </filter>
    <filter
       inkscape:label="Evanescent"
       inkscape:menu="Blurs"
       inkscape:menu-tooltip="Blur the contents of objects, preserving the outline and adding progressive transparency at edges"
       style="color-interpolation-filters:sRGB"
       id="filter4928-5">
      <feGaussianBlur
         result="result6"
         stdDeviation="3"
         in="SourceGraphic"
         id="feGaussianBlur4922-5" />
      <feColorMatrix
         values="1 0 0 0 0 0 1 0 0 0 0 0 1 0 0 0 0 0 1 0 "
         result="result7"
         in="SourceGraphic"
         id="feColorMatrix4924-6" />
      <feComposite
         operator="in"
         in="result6"
         in2="result7"
         id="feComposite4926-5" />
    </filter>
    <filter
       style="color-interpolation-filters:sRGB"
       inkscape:label="Feather"
       id="filter5010">
      <feGaussianBlur
         stdDeviation="0.5"
         result="blur"
         id="feGaussianBlur5002" />
      <feComposite
         in="SourceGraphic"
         in2="blur"
         operator="atop"
         result="composite1"
         id="feComposite5004" />
      <feComposite
         in2="composite1"
         operator="in"
         result="composite2"
         id="feComposite5006" />
      <feComposite
         in2="composite2"
         operator="in"
         result="composite3"
         id="feComposite5008" />
    </filter>
    <filter
       style="color-interpolation-filters:sRGB"
       inkscape:label="Feather"
       id="filter5075">
      <feGaussianBlur
         stdDeviation="0.5"
         result="blur"
         id="feGaussianBlur5067" />
      <feComposite
         in="SourceGraphic"
         in2="blur"
         operator="atop"
         result="composite1"
         id="feComposite5069" />
      <feComposite
         in2="composite1"
         operator="in"
         result="composite2"
         id="feComposite5071" />
      <feComposite
         in2="composite2"
         operator="in"
         result="composite3"
         id="feComposite5073" />
    </filter>
    <filter
       style="color-interpolation-filters:sRGB"
       inkscape:label="Feather"
       id="filter5115">
      <feGaussianBlur
         stdDeviation="0.5"
         result="blur"
         id="feGaussianBlur5107" />
      <feComposite
         in="SourceGraphic"
         in2="blur"
         operator="atop"
         result="composite1"
         id="feComposite5109" />
      <feComposite
         in2="composite1"
         operator="in"
         result="composite2"
         id="feComposite5111" />
      <feComposite
         in2="composite2"
         operator="in"
         result="composite3"
         id="feComposite5113" />
    </filter>
    <filter
       inkscape:collect="always"
       style="color-interpolation-filters:sRGB"
       id="filter6123"
       x="-0.24928726"
       width="1.4985745"
       y="-0.16681254"
       height="1.3336251">
      <feGaussianBlur
         inkscape:collect="always"
         stdDeviation="1.0397969"
         id="feGaussianBlur6125" />
    </filter>
    <filter
       inkscape:collect="always"
       style="color-interpolation-filters:sRGB"
       id="filter6127"
       x="-0.25792852"
       width="1.515857"
       y="-0.16402675"
       height="1.3280535">
      <feGaussianBlur
         inkscape:collect="always"
         stdDeviation="1.0397969"
         id="feGaussianBlur6129" />
    </filter>
    <filter
       inkscape:collect="always"
       style="color-interpolation-filters:sRGB"
       id="filter6131"
       x="-0.24928726"
       width="1.4985745"
       y="-0.16681254"
       height="1.3336251">
      <feGaussianBlur
         inkscape:collect="always"
         stdDeviation="1.0397969"
         id="feGaussianBlur6133" />
    </filter>
    <filter
       inkscape:collect="always"
       style="color-interpolation-filters:sRGB"
       id="filter6135"
       x="-0.25792852"
       width="1.515857"
       y="-0.16402677"
       height="1.3280535">
      <feGaussianBlur
         inkscape:collect="always"
         stdDeviation="1.0397969"
         id="feGaussianBlur6137" />
    </filter>
    <filter
       inkscape:collect="always"
       style="color-interpolation-filters:sRGB"
       id="filter6173"
       x="-0.083326072"
       width="1.1666521"
       y="-0.16353507"
       height="1.3270701">
      <feGaussianBlur
         inkscape:collect="always"
         stdDeviation="1.03668"
         id="feGaussianBlur6175" />
    </filter>
    <filter
       inkscape:collect="always"
       style="color-interpolation-filters:sRGB"
       id="filter6561"
       x="-0.82224262"
       width="2.6444852"
       y="-0.84857231"
       height="2.6971445">
      <feGaussianBlur
         inkscape:collect="always"
         stdDeviation="0.96153682"
         id="feGaussianBlur6563" />
    </filter>
    <radialGradient
       inkscape:collect="always"
       xlink:href="#linearGradient6590"
       id="radialGradient6592"
       cx="35.423454"
       cy="52.696198"
       fx="35.423454"
       fy="52.696198"
       r="14.165258"
       gradientTransform="matrix(1.6425573,0.03202866,-0.03301895,1.6933428,-35.077618,158.17341)"
       gradientUnits="userSpaceOnUse" />
    <radialGradient
       inkscape:collect="always"
       xlink:href="#linearGradient6590"
       id="radialGradient6608"
       cx="35.624184"
       cy="60.154491"
       fx="35.624184"
       fy="60.154491"
       r="14.467468"
       gradientTransform="matrix(2.0622043,-0.01297292,0.00923691,1.4683197,-52.451795,159.66223)"
       gradientUnits="userSpaceOnUse" />
    <radialGradient
       inkscape:collect="always"
       xlink:href="#linearGradient6590"
       id="radialGradient6618"
       gradientUnits="userSpaceOnUse"
       gradientTransform="matrix(-1.9610758,-0.9592061,1.2275033,-2.5096033,15.953585,429.02815)"
       cx="34.580833"
       cy="58.970837"
       fx="34.580833"
       fy="58.970837"
       r="8.153966" />
    <filter
       style="color-interpolation-filters:sRGB"
       inkscape:label="Feather"
       id="filter6718">
      <feGaussianBlur
         stdDeviation="0.5"
         result="blur"
         id="feGaussianBlur6710" />
      <feComposite
         in="SourceGraphic"
         in2="blur"
         operator="atop"
         result="composite1"
         id="feComposite6712" />
      <feComposite
         in2="composite1"
         operator="in"
         result="composite2"
         id="feComposite6714" />
      <feComposite
         in2="composite2"
         operator="in"
         result="composite3"
         id="feComposite6716" />
    </filter>
  </defs>
  <sodipodi:namedview
     id="base"
     pagecolor="#ffffff"
     bordercolor="#666666"
     borderopacity="1.0"
     inkscape:pageopacity="0.0"
     inkscape:pageshadow="2"
     inkscape:zoom="1.979899"
     inkscape:cx="219.05448"
     inkscape:cy="192.67672"
     inkscape:document-units="mm"
     inkscape:current-layer="layer9"
     showgrid="false"
     showguides="true"
     inkscape:guide-bbox="true"
     inkscape:window-width="1920"
     inkscape:window-height="1017"
     inkscape:window-x="-8"
     inkscape:window-y="-8"
     inkscape:window-maximized="1"
     inkscape:object-nodes="true"
     inkscape:snap-nodes="true"
     inkscape:snap-others="true"
     inkscape:snap-global="true"
     inkscape:snap-bbox="true"
     inkscape:bbox-nodes="true"
     inkscape:snap-bbox-edge-midpoints="true"
     inkscape:snap-bbox-midpoints="true"
     inkscape:bbox-paths="true"
     inkscape:object-paths="true"
     inkscape:snap-intersection-paths="true"
     inkscape:snap-smooth-nodes="true"
     inkscape:snap-center="true"
     inkscape:snap-object-midpoints="true"
     inkscape:snap-midpoints="true" />
  <metadata
     id="metadata5">
    <rdf:RDF>
      <cc:Work
         rdf:about="">
        <dc:format>image/svg+xml</dc:format>
        <dc:type
           rdf:resource="http://purl.org/dc/dcmitype/StillImage" />
        <dc:title></dc:title>
      </cc:Work>
    </rdf:RDF>
  </metadata>
  <g
     inkscape:groupmode="layer"
     id="layer9"
     inkscape:label="Background White">
    <rect
       style="opacity:1;vector-effect:none;fill:#ffffff;fill-opacity:0.48627451;stroke:none;stroke-width:0.31399998;stroke-linecap:round;stroke-linejoin:round;stroke-miterlimit:4;stroke-dasharray:none;stroke-dashoffset:0;stroke-opacity:0.92929293"
       id="rect8487"
       width="140.99377"
       height="77.037262"
       x="0"
       y="0.046739999" />
    <rect
       style="display:inline;opacity:1;vector-effect:none;fill:#ffffff;fill-opacity:0.89393938;stroke:none;stroke-width:0.31399998;stroke-linecap:round;stroke-linejoin:round;stroke-miterlimit:4;stroke-dasharray:none;stroke-dashoffset:0;stroke-opacity:0.92929293"
       id="rect9422"
       width="140.99379"
       height="77.037262"
       x="0"
       y="0.046738904" />
  </g>
  <g
     inkscape:label="Background"
     inkscape:groupmode="layer"
     id="layer1"
     style="display:inline"
     transform="translate(0,-219.916)">
    <path
       style="fill:#94bf00;fill-opacity:0.98989898;stroke:none;stroke-width:0.26458332px;stroke-linecap:butt;stroke-linejoin:miter;stroke-opacity:0.98039216"
       d="m 5.549672,219.96274 135.411808,-0.0472 v 27.74404 l -119.475897,-0.006 z"
       id="path4622"
       inkscape:connector-curvature="0"
       sodipodi:nodetypes="ccccc" />
    <path
       style="fill:#006699;fill-opacity:1;stroke:none;stroke-width:0.26458332px;stroke-linecap:butt;stroke-linejoin:miter;stroke-opacity:0.98039216"
       d="M 0,297 21.328414,248.41678 H 140.95468 L 140.99378,297 Z"
       id="path4628"
       inkscape:connector-curvature="0"
       sodipodi:nodetypes="ccccc" />
    <path
       style="fill:#f7931e;fill-opacity:1;stroke:none;stroke-width:0.26458332px;stroke-linecap:butt;stroke-linejoin:miter;stroke-opacity:1"
       d="M 0,295.39184 20.672424,247.86473 4.794444,219.96274 H 0 Z"
       id="path4634"
       inkscape:connector-curvature="0"
       sodipodi:nodetypes="ccccc" />
  </g>
  <g
     inkscape:groupmode="layer"
     id="layer5"
     inkscape:label="DLayer"
     style="display:inline"
     transform="translate(0,-219.916)">
    <path
       style="fill:#ffffff;fill-opacity:0.50196078;stroke:none;stroke-width:0.26297337px;stroke-linecap:butt;stroke-linejoin:miter;stroke-opacity:1"
       d="m 21.328414,248.54206 c 0,0 -2.973859,6.63942 -3.296957,7.47138 -0.323096,0.83196 -1.447901,3.61757 -1.392796,5.51178 0.02995,1.02951 0.383506,2.07351 0.929854,2.94659 0.392504,0.62724 0.990717,1.12408 1.611763,1.52632 0.653182,0.42304 1.395962,0.73341 2.158174,0.8904 2.154494,0.44375 4.43325,0.48704 6.598417,0.0987 2.147351,-0.38515 4.257154,-1.20193 6.102176,-2.36612 2.045507,-1.29069 3.585361,-2.4561 5.279927,-4.97718 2.291601,-3.40931 4.127121,-8.21436 5.320161,-11.10323 z m 2.594673,4.9103 13.394828,0.0703 c -0.590989,1.44417 -1.672675,3.33555 -2.805803,4.80953 -1.133128,1.47397 -2.067012,2.03959 -3.33111,2.71208 -1.019013,0.54211 -2.173433,0.82565 -3.313633,1.00513 -0.957662,0.15076 -1.948299,0.18949 -2.907903,0.0517 -0.532998,-0.0766 -1.068896,-0.22459 -1.541775,-0.48214 -0.352206,-0.19183 -0.687335,-0.44656 -0.924587,-0.76991 -0.277518,-0.37823 -0.474649,-0.83663 -0.534516,-1.30191 -0.101391,-0.78797 0.0089,-1.32818 0.317571,-2.36213 0.308711,-1.03396 1.646928,-3.73259 1.646928,-3.73259 z"
       id="path4640-0"
       inkscape:connector-curvature="0"
       sodipodi:nodetypes="ccaaaaaascccczaaaaaazc" />
    <path
       style="fill:#ffffff;fill-opacity:0.50196078;stroke:none;stroke-width:0.26458332px;stroke-linecap:butt;stroke-linejoin:miter;stroke-opacity:1"
       d="m 13.952636,226.71342 c -1.619831,-0.002 -3.113517,0.034 -4.321701,0.0615 l 11.937256,20.75119 c 0,0 7.524613,0.0394 8.441862,0 0.91725,-0.0394 3.967255,-0.10393 5.671267,-0.98601 0.883672,-0.45743 1.641857,-1.23105 2.115469,-2.10615 0.31851,-0.58852 0.386942,-1.29685 0.407741,-1.96571 0.02416,-0.77682 -0.08606,-1.57035 -0.330801,-2.30801 -0.67774,-2.04276 -1.72345,-4.00554 -3.086134,-5.67147 -1.796196,-2.1959 -4.039238,-4.09455 -6.520823,-5.46933 -1.809374,-1.00239 -3.86723,-1.54543 -5.902248,-1.91597 -2.76157,-0.50283 -5.712172,-0.38594 -8.411888,-0.39003 z m 4.986259,4.31395 c 1.313836,0.008 2.931887,0.0474 4.335065,0.41986 1.417857,0.37642 2.78238,1.00743 4.014044,1.8043 1.104852,0.71483 2.116706,1.60435 2.952104,2.6211 0.737074,0.89708 1.355329,1.91679 1.763454,3.00374 0.187433,0.49919 0.308657,1.0385 0.298193,1.57161 -0.008,0.40543 -0.07452,0.83204 -0.273502,1.18538 -0.229262,0.40711 -0.599377,0.74484 -1.004518,0.97757 -0.649464,0.37307 -1.707628,0.57919 -2.164958,0.60152 -0.45733,0.0223 -4.122304,0.0236 -4.122304,0.0236 l -7.05745,-12.19475 c 0.401952,-0.0104 0.821925,-0.0165 1.259872,-0.0139 z"
       id="path4640"
       inkscape:connector-curvature="0"
       sodipodi:nodetypes="scccaaaaaaascaaaaaaaccccc" />
    <path
       style="fill:#ffffff;fill-opacity:0.50196078;stroke:none;stroke-width:0.2386515px;stroke-linecap:butt;stroke-linejoin:miter;stroke-opacity:1"
       d="m 12.131115,236.09048 c -0.495377,-0.0745 -1.014364,-0.035 -1.500335,0.0865 -0.501698,0.12549 -0.991284,0.34489 -1.408552,0.6504 -0.78674,0.57602 -1.455543,1.33375 -1.971139,2.16135 -1.02651,1.64769 -1.682906,3.53085 -2.132687,5.41931 -0.514284,2.15929 -0.738208,4.41411 -0.616499,6.63046 0.136249,2.48113 0.410268,4.49059 1.498764,7.30239 1.471999,3.80247 3.906838,7.87238 5.444305,10.41575 l 9.079872,-20.89211 c 0,0 -4.636836,-8.15792 -5.087546,-8.87181 -0.45071,-0.71389 -1.092091,-1.78971 -1.920441,-2.38693 -0.399759,-0.28822 -0.898395,-0.4421 -1.385742,-0.51537 z m -0.125641,6.29856 c 0.297091,-0.0176 0.603307,0.10025 0.853899,0.2608 0.530267,0.33973 1.029975,1.05637 1.256559,1.41084 0.226584,0.35448 1.920295,3.38171 1.920298,3.38171 l -5.288567,12.01012 c -0.753991,-1.31665 -1.174399,-2.21994 -1.884052,-4.1578 -0.524765,-1.43299 -0.77779,-2.70683 -0.844508,-4.10088 -0.06477,-1.35343 0.0832,-2.73323 0.435938,-4.04149 0.283054,-1.04982 0.76529,-2.04897 1.327906,-2.9794 0.271302,-0.44867 0.560201,-0.91355 0.974857,-1.23443 0.359391,-0.27812 0.794032,-0.52258 1.24767,-0.54947 z"
       id="path4640-02"
       inkscape:connector-curvature="0"
       sodipodi:nodetypes="aaaaaasccsaaaacccsaaaaa" />
  </g>
  <g
     inkscape:groupmode="layer"
     id="layer4"
     inkscape:label="Feather"
     style="display:inline"
     transform="translate(0,-219.916)">
    <path
       style="fill:#006699;fill-opacity:1;stroke:none;stroke-width:0.26297337px;stroke-linecap:butt;stroke-linejoin:miter;stroke-opacity:1;filter:url(#filter5010)"
       d="m 21.328414,248.54206 c 0,0 -2.973859,6.63942 -3.296957,7.47138 -0.323096,0.83196 -1.447901,3.61757 -1.392796,5.51178 0.02995,1.02951 0.383506,2.07351 0.929854,2.94659 0.392504,0.62724 0.990717,1.12408 1.611763,1.52632 0.653182,0.42304 1.395962,0.73341 2.158174,0.8904 2.154494,0.44375 4.43325,0.48704 6.598417,0.0987 2.147351,-0.38515 4.257154,-1.20193 6.102176,-2.36612 2.045507,-1.29069 3.585361,-2.4561 5.279927,-4.97718 2.291601,-3.40931 4.127121,-8.21436 5.320161,-11.10323 z m 2.594673,4.9103 13.394828,0.0703 c -0.590989,1.44417 -1.672675,3.33555 -2.805803,4.80953 -1.133128,1.47397 -2.067012,2.03959 -3.33111,2.71208 -1.019013,0.54211 -2.173433,0.82565 -3.313633,1.00513 -0.957662,0.15076 -1.948299,0.18949 -2.907903,0.0517 -0.532998,-0.0766 -1.068896,-0.22459 -1.541775,-0.48214 -0.352206,-0.19183 -0.687335,-0.44656 -0.924587,-0.76991 -0.277518,-0.37823 -0.474649,-0.83663 -0.534516,-1.30191 -0.101391,-0.78797 0.0089,-1.32818 0.317571,-2.36213 0.308711,-1.03396 1.646928,-3.73259 1.646928,-3.73259 z"
       id="path4640-0-0"
       inkscape:connector-curvature="0"
       sodipodi:nodetypes="ccaaaaaascccczaaaaaazc" />
    <path
       style="fill:#94be00;fill-opacity:1;stroke:none;stroke-width:0.26458332px;stroke-linecap:butt;stroke-linejoin:miter;stroke-opacity:1;filter:url(#filter6718)"
       d="m 13.952636,226.71342 c -1.619831,-0.002 -3.113517,0.034 -4.321701,0.0615 l 11.937256,20.75119 c 0,0 7.524613,0.0394 8.441862,0 0.91725,-0.0394 3.967255,-0.10393 5.671267,-0.98601 0.883672,-0.45743 1.641857,-1.23105 2.115469,-2.10615 0.31851,-0.58852 0.386942,-1.29685 0.407741,-1.96571 0.02416,-0.77682 -0.08606,-1.57035 -0.330801,-2.30801 -0.67774,-2.04276 -1.72345,-4.00554 -3.086134,-5.67147 -1.796196,-2.1959 -4.039238,-4.09455 -6.520823,-5.46933 -1.809374,-1.00239 -3.86723,-1.54543 -5.902248,-1.91597 -2.76157,-0.50283 -5.712172,-0.38594 -8.411888,-0.39003 z m 4.986259,4.31395 c 1.313836,0.008 2.931887,0.0474 4.335065,0.41986 1.417857,0.37642 2.78238,1.00743 4.014044,1.8043 1.104852,0.71483 2.116706,1.60435 2.952104,2.6211 0.737074,0.89708 1.355329,1.91679 1.763454,3.00374 0.187433,0.49919 0.308657,1.0385 0.298193,1.57161 -0.008,0.40543 -0.07452,0.83204 -0.273502,1.18538 -0.229262,0.40711 -0.599377,0.74484 -1.004518,0.97757 -0.649464,0.37307 -1.707628,0.57919 -2.164958,0.60152 -0.45733,0.0223 -4.122304,0.0236 -4.122304,0.0236 l -7.05745,-12.19475 c 0.401952,-0.0104 0.821925,-0.0165 1.259872,-0.0139 z"
       id="path4640-3"
       inkscape:connector-curvature="0"
       sodipodi:nodetypes="scccaaaaaaascaaaaaaaccccc" />
    <path
       style="fill:#f7931e;fill-opacity:1;stroke:none;stroke-width:0.2386515px;stroke-linecap:butt;stroke-linejoin:miter;stroke-opacity:1;filter:url(#filter5115)"
       d="m 12.131115,236.09048 c -0.495377,-0.0745 -1.014364,-0.035 -1.500335,0.0865 -0.501698,0.12549 -0.991284,0.34489 -1.408552,0.6504 -0.78674,0.57602 -1.455543,1.33375 -1.971139,2.16135 -1.02651,1.64769 -1.682906,3.53085 -2.132687,5.41931 -0.514284,2.15929 -0.738208,4.41411 -0.616499,6.63046 0.136249,2.48113 0.410268,4.49059 1.498764,7.30239 1.471999,3.80247 3.906838,7.87238 5.444305,10.41575 l 9.079872,-20.89211 c 0,0 -4.636836,-8.15792 -5.087546,-8.87181 -0.45071,-0.71389 -1.092091,-1.78971 -1.920441,-2.38693 -0.399759,-0.28822 -0.898395,-0.4421 -1.385742,-0.51537 z m -0.125641,6.29856 c 0.297091,-0.0176 0.603307,0.10025 0.853899,0.2608 0.530267,0.33973 1.029975,1.05637 1.256559,1.41084 0.226584,0.35448 1.920295,3.38171 1.920298,3.38171 l -5.288567,12.01012 c -0.753991,-1.31665 -1.174399,-2.21994 -1.884052,-4.1578 -0.524765,-1.43299 -0.77779,-2.70683 -0.844508,-4.10088 -0.06477,-1.35343 0.0832,-2.73323 0.435938,-4.04149 0.283054,-1.04982 0.76529,-2.04897 1.327906,-2.9794 0.271302,-0.44867 0.560201,-0.91355 0.974857,-1.23443 0.359391,-0.27812 0.794032,-0.52258 1.24767,-0.54947 z"
       id="path4640-02-3"
       inkscape:connector-curvature="0"
       sodipodi:nodetypes="aaaaaasccsaaaacccsaaaaa" />
  </g>
  <g
     inkscape:groupmode="layer"
     id="layer6"
     inkscape:label="Stroke"
     style="display:inline"
     transform="translate(0,-219.916)">
    <path
       style="display:inline;fill:none;fill-opacity:0.50196078;stroke:url(#radialGradient6592);stroke-width:0.26297337px;stroke-linecap:butt;stroke-linejoin:miter;stroke-opacity:1"
       d="m 21.328414,248.54206 c 0,0 -2.973859,6.63942 -3.296957,7.47138 -0.323096,0.83196 -1.447901,3.61757 -1.392796,5.51178 0.02995,1.02951 0.383506,2.07351 0.929854,2.9466 0.392504,0.62723 0.990717,1.12407 1.611763,1.52631 0.653182,0.42304 1.395962,0.73341 2.158174,0.8904 2.154494,0.44375 4.43325,0.48704 6.598417,0.0987 2.147351,-0.38515 4.257155,-1.20193 6.102176,-2.36612 2.045507,-1.29069 3.585361,-2.4561 5.279927,-4.97718 2.291602,-3.40931 4.127122,-8.21436 5.32016,-11.10323 z m 2.594673,4.9103 13.394828,0.0703 c -0.590989,1.44417 -1.672674,3.33555 -2.805803,4.80953 -1.133128,1.47397 -2.067012,2.03958 -3.331109,2.71208 -1.019014,0.54211 -2.173434,0.82564 -3.313634,1.00513 -0.957662,0.15076 -1.948299,0.18949 -2.907903,0.0517 -0.532998,-0.0766 -1.068896,-0.22459 -1.541775,-0.48215 -0.352206,-0.19182 -0.687335,-0.44655 -0.924587,-0.7699 -0.277518,-0.37823 -0.474649,-0.83663 -0.534516,-1.30191 -0.101391,-0.78797 0.0089,-1.32818 0.317571,-2.36213 0.308711,-1.03396 1.646928,-3.73259 1.646928,-3.73259 z"
       id="path4640-0-5"
       inkscape:connector-curvature="0"
       sodipodi:nodetypes="ccaaaaaascccczaaaaaazc" />
    <path
       style="display:inline;fill:none;fill-opacity:0.50196078;stroke:url(#radialGradient6608);stroke-width:0.26458332px;stroke-linecap:butt;stroke-linejoin:miter;stroke-opacity:1"
       d="m 13.952636,226.71342 c -1.619831,-0.002 -3.113517,0.034 -4.321701,0.0615 l 11.937256,20.75119 c 0,0 7.524613,0.0394 8.441862,0 0.91725,-0.0394 3.967254,-0.10393 5.671266,-0.98601 0.883674,-0.45743 1.641859,-1.23105 2.115471,-2.10615 0.318508,-0.58852 0.38694,-1.29685 0.407739,-1.96571 0.02416,-0.77682 -0.08606,-1.57035 -0.330801,-2.30801 -0.677738,-2.04276 -1.723448,-4.00554 -3.086134,-5.67147 -1.796196,-2.1959 -4.039237,-4.09455 -6.520822,-5.46933 -1.809374,-1.00239 -3.86723,-1.54543 -5.902248,-1.91597 -2.76157,-0.50283 -5.712172,-0.38594 -8.411888,-0.39003 z m 4.986259,4.31395 c 1.313836,0.008 2.931887,0.0474 4.335065,0.41986 1.417857,0.37642 2.78238,1.00743 4.014044,1.8043 1.104852,0.71483 2.116706,1.60435 2.952104,2.6211 0.737073,0.89708 1.35533,1.91679 1.763453,3.00374 0.187433,0.49919 0.308657,1.0385 0.298193,1.57161 -0.008,0.40543 -0.07452,0.83204 -0.2735,1.18538 -0.229264,0.40711 -0.599379,0.74484 -1.00452,0.97757 -0.649463,0.37307 -1.707627,0.57919 -2.164957,0.60152 -0.45733,0.0223 -4.122304,0.0236 -4.122304,0.0236 l -7.05745,-12.19475 c 0.401952,-0.0104 0.821925,-0.0165 1.259872,-0.0139 z"
       id="path4640-33"
       inkscape:connector-curvature="0"
       sodipodi:nodetypes="scccaaaaaaascaaaaaaaccccc" />
    <path
       style="display:inline;fill:none;fill-opacity:0.50196078;stroke:url(#radialGradient6618);stroke-width:0.2386515px;stroke-linecap:butt;stroke-linejoin:miter;stroke-opacity:1"
       d="m 12.131115,236.09048 c -0.495377,-0.0745 -1.014364,-0.035 -1.500335,0.0865 -0.501698,0.12549 -0.991284,0.34489 -1.408552,0.6504 -0.78674,0.57602 -1.455543,1.33375 -1.971139,2.16135 -1.02651,1.64769 -1.682906,3.53085 -2.132687,5.41931 -0.514284,2.15929 -0.738208,4.41411 -0.616499,6.63046 0.136249,2.48113 0.410268,4.49059 1.498764,7.30239 1.471999,3.80247 3.906838,7.87238 5.444305,10.41575 l 9.079872,-20.89211 c 0,0 -4.636836,-8.15792 -5.087546,-8.87181 -0.45071,-0.71389 -1.092091,-1.78971 -1.920441,-2.38693 -0.399759,-0.28822 -0.898395,-0.4421 -1.385742,-0.51537 z m -0.125641,6.29856 c 0.297091,-0.0176 0.603307,0.10025 0.853899,0.2608 0.530267,0.33973 1.029975,1.05637 1.256559,1.41084 0.226584,0.35448 1.920295,3.38171 1.920298,3.38171 l -5.288567,12.01012 c -0.753991,-1.31665 -1.174399,-2.21994 -1.884052,-4.1578 -0.524765,-1.43299 -0.77779,-2.70683 -0.844508,-4.10088 -0.06477,-1.35343 0.0832,-2.73323 0.435938,-4.04149 0.283054,-1.04982 0.76529,-2.04897 1.327906,-2.9794 0.271302,-0.44867 0.560201,-0.91355 0.974857,-1.23443 0.359391,-0.27812 0.794032,-0.52258 1.24767,-0.54947 z"
       id="path4640-02-6"
       inkscape:connector-curvature="0"
       sodipodi:nodetypes="aaaaaasccsaaaacccsaaaaa" />
  </g>
  <g
     inkscape:groupmode="layer"
     id="layer8"
     inkscape:label="LogoShadow"
     style="display:inline"
     transform="translate(0,-219.916)">
    <g
       transform="translate(-12.468491,192.51515)"
       aria-label="i3D"
       style="font-style:normal;font-variant:normal;font-weight:normal;font-stretch:normal;font-size:10.58333302px;line-height:1.25;font-family:Arial;-inkscape-font-specification:Arial;letter-spacing:0px;word-spacing:0px;opacity:1;fill:#030303;fill-opacity:0.48627451;stroke:none;stroke-width:0.26458332;filter:url(#filter6173)"
       id="text4531-16">
      <path
         d="M 68.112275,52.827377 V 42.034238 h 2.855812 v 10.793139 z"
         style="font-style:normal;font-variant:normal;font-weight:bold;font-stretch:normal;font-size:20.81388855px;font-family:Arial;-inkscape-font-specification:'Arial Bold';fill:#030303;fill-opacity:0.48627451;stroke-width:0.26458332"
         id="path4605-1"
         inkscape:connector-curvature="0"
         sodipodi:nodetypes="ccccc" />
      <path
         inkscape:connector-curvature="0"
         d="m 73.173465,48.873958 2.764344,-0.33538 q 0.13212,1.056955 0.711412,1.615922 0.579293,0.558967 1.402499,0.558967 0.884183,0 1.483802,-0.67076 0.609782,-0.67076 0.609782,-1.80902 0,-1.077281 -0.579293,-1.707389 -0.579292,-0.630108 -1.412661,-0.630108 -0.548804,0 -1.311031,0.213423 l 0.315054,-2.327334 q 1.158585,0.03049 1.768367,-0.497988 0.609782,-0.538641 0.609782,-1.422825 0,-0.752064 -0.447173,-1.199237 -0.447174,-0.447174 -1.189075,-0.447174 -0.731738,0 -1.250053,0.508152 -0.518314,0.508151 -0.630108,1.483802 l -2.632225,-0.447173 q 0.274402,-1.351683 0.823206,-2.154563 0.558966,-0.813042 1.544781,-1.270379 0.995977,-0.467499 2.225703,-0.467499 2.103748,0 3.374127,1.34152 1.046792,1.097607 1.046792,2.47978 0,1.961465 -2.1444,3.130213 1.280542,0.274402 2.04277,1.229727 0.77239,0.955325 0.77239,2.307008 0,1.961466 -1.432987,3.343638 -1.432988,1.382172 -3.567224,1.382172 -2.022444,0 -3.353801,-1.158585 -1.331357,-1.168749 -1.54478,-3.04891 z"
         style="font-style:normal;font-variant:normal;font-weight:bold;font-stretch:normal;font-size:20.81388855px;font-family:Arial;-inkscape-font-specification:'Arial Bold';fill:#030303;fill-opacity:0.48627451;stroke-width:0.26458332"
         id="path4607-2" />
      <path
         inkscape:connector-curvature="0"
         d="m 85.480895,37.928373 h 5.4982 q 1.859835,0 2.835486,0.284565 1.311031,0.386195 2.24603,1.372009 0.934999,0.985814 1.422824,2.418802 0.487826,1.422824 0.487826,3.516409 0,1.839508 -0.457336,3.170865 -0.558967,1.626086 -1.595596,2.632226 -0.782554,0.762227 -2.113911,1.189074 -0.995977,0.315054 -2.662714,0.315054 h -5.660809 z m 3.008258,2.520432 v 9.868304 h 2.24603 q 1.260215,0 1.819182,-0.142283 0.731738,-0.182934 1.209401,-0.619945 0.487825,-0.43701 0.792716,-1.432987 0.304891,-1.00614 0.304891,-2.733856 0,-1.727715 -0.304891,-2.652551 -0.304891,-0.924836 -0.853694,-1.44315 -0.548804,-0.518315 -1.392336,-0.70125 -0.630108,-0.142282 -2.469616,-0.142282 z"
         style="font-style:normal;font-variant:normal;font-weight:bold;font-stretch:normal;font-size:20.81388855px;font-family:Arial;-inkscape-font-specification:'Arial Bold';fill:#030303;fill-opacity:0.48627451;stroke-width:0.26458332"
         id="path4609-9" />
    </g>
    <g
       transform="translate(-12.468491,192.51515)"
       aria-label="0"
       style="font-style:normal;font-variant:normal;font-weight:normal;font-stretch:normal;font-size:10.58333302px;line-height:1.25;font-family:Arial;-inkscape-font-specification:Arial;letter-spacing:0px;word-spacing:0px;opacity:1;fill:#030303;fill-opacity:0.48627451;stroke:none;stroke-width:0.26458332;filter:url(#filter6135)"
       id="text4531-1-61">
      <path
         inkscape:connector-curvature="0"
         d="m 119.79974,37.974451 q 2.16473,0 3.38429,1.54478 1.45332,1.829346 1.45332,6.06733 0,4.227821 -1.46348,6.077493 -1.2094,1.524455 -3.37413,1.524455 -2.17489,0 -3.50624,-1.666737 -1.33136,-1.676901 -1.33136,-5.9657 0,-4.207495 1.46348,-6.057167 1.2094,-1.524454 3.37412,-1.524454 z m 0,2.367986 q -0.51831,0 -0.92483,0.33538 -0.40652,0.325217 -0.63011,1.178912 -0.29473,1.10777 -0.29473,3.729832 0,2.622062 0.26424,3.607876 0.26424,0.975651 0.6606,1.300868 0.40652,0.325217 0.92483,0.325217 0.51832,0 0.92484,-0.325217 0.40652,-0.33538 0.63011,-1.189074 0.29472,-1.097608 0.29472,-3.71967 0,-2.622062 -0.26423,-3.597713 -0.26424,-0.985814 -0.67076,-1.311031 -0.39636,-0.33538 -0.91468,-0.33538 z"
         style="font-style:normal;font-variant:normal;font-weight:bold;font-stretch:normal;font-size:20.81388855px;font-family:Arial;-inkscape-font-specification:'Arial Bold';fill:#030303;fill-opacity:0.48627451;stroke-width:0.26458332"
         id="path4602-7" />
    </g>
    <g
       transform="translate(-12.468491,192.51515)"
       aria-label="2"
       style="font-style:normal;font-variant:normal;font-weight:normal;font-stretch:normal;font-size:10.58333302px;line-height:1.25;font-family:Arial;-inkscape-font-specification:Arial;letter-spacing:0px;word-spacing:0px;opacity:1;fill:#030303;fill-opacity:0.48627451;stroke:none;stroke-width:0.26458332;filter:url(#filter6131)"
       id="text4531-1-6-1">
      <path
         inkscape:connector-curvature="0"
         d="m 113.38792,50.157244 v 2.652551 h -10.01059 q 0.16261,-1.504128 0.97565,-2.845648 0.81304,-1.351684 3.21152,-3.577388 1.93098,-1.798856 2.36799,-2.439127 0.58945,-0.884184 0.58945,-1.748042 0,-0.955324 -0.51831,-1.463476 -0.50815,-0.518315 -1.41266,-0.518315 -0.89435,0 -1.42283,0.538641 -0.52848,0.538641 -0.60978,1.788694 l -2.84565,-0.284565 q 0.25408,-2.357824 1.5956,-3.38429 1.34152,-1.026466 3.3538,-1.026466 2.20538,0 3.46559,1.189075 1.26022,1.189074 1.26022,2.957442 0,1.00614 -0.36587,1.920813 -0.35571,0.90451 -1.13826,1.900487 -0.51832,0.660597 -1.87,1.900487 -1.35168,1.239889 -1.71755,1.646411 -0.35571,0.406521 -0.57929,0.792716 z"
         style="font-style:normal;font-variant:normal;font-weight:bold;font-stretch:normal;font-size:20.81388855px;font-family:Arial;-inkscape-font-specification:'Arial Bold';fill:#030303;fill-opacity:0.48627451;stroke-width:0.26458332"
         id="path4599-7" />
    </g>
    <g
       transform="translate(-12.468491,192.51515)"
       aria-label="0"
       style="font-style:normal;font-variant:normal;font-weight:normal;font-stretch:normal;font-size:10.58333302px;line-height:1.25;font-family:Arial;-inkscape-font-specification:Arial;letter-spacing:0px;word-spacing:0px;opacity:1;fill:#030303;fill-opacity:0.48627451;stroke:none;stroke-width:0.26458332;filter:url(#filter6127)"
       id="text4531-1-8-9">
      <path
         inkscape:connector-curvature="0"
         d="m 142.43079,38.006631 q 2.16472,0 3.38429,1.544781 1.45331,1.829346 1.45331,6.06733 0,4.227821 -1.46348,6.077493 -1.2094,1.524455 -3.37412,1.524455 -2.17489,0 -3.50625,-1.666738 -1.33136,-1.6769 -1.33136,-5.965699 0,-4.207495 1.46348,-6.057167 1.2094,-1.524455 3.37413,-1.524455 z m 0,2.367987 q -0.51832,0 -0.92484,0.33538 -0.40652,0.325217 -0.63011,1.178911 -0.29473,1.107771 -0.29473,3.729833 0,2.622062 0.26424,3.607876 0.26424,0.975651 0.6606,1.300868 0.40652,0.325217 0.92484,0.325217 0.51831,0 0.92483,-0.325217 0.40652,-0.33538 0.63011,-1.189074 0.29473,-1.097608 0.29473,-3.71967 0,-2.622062 -0.26424,-3.597713 -0.26424,-0.985814 -0.67076,-1.311031 -0.39636,-0.33538 -0.91467,-0.33538 z"
         style="font-style:normal;font-variant:normal;font-weight:bold;font-stretch:normal;font-size:20.81388855px;font-family:Arial;-inkscape-font-specification:'Arial Bold';fill:#030303;fill-opacity:0.48627451;stroke-width:0.26458332"
         id="path4596-1" />
    </g>
    <g
       transform="translate(-12.468491,192.51515)"
       aria-label="2"
       style="font-style:normal;font-variant:normal;font-weight:normal;font-stretch:normal;font-size:10.58333302px;line-height:1.25;font-family:Arial;-inkscape-font-specification:Arial;letter-spacing:0px;word-spacing:0px;opacity:1;fill:#030303;fill-opacity:0.48627451;stroke:none;stroke-width:0.26458332;filter:url(#filter6123)"
       id="text4531-1-6-6-2">
      <path
         inkscape:connector-curvature="0"
         d="m 136.01897,50.189425 v 2.652551 h -10.01059 q 0.16261,-1.504128 0.97565,-2.845649 0.81304,-1.351683 3.21152,-3.577387 1.93098,-1.798856 2.36799,-2.439127 0.58945,-0.884184 0.58945,-1.748042 0,-0.955325 -0.51831,-1.463476 -0.50815,-0.518315 -1.41266,-0.518315 -0.89435,0 -1.42283,0.538641 -0.52848,0.53864 -0.60978,1.788693 l -2.84565,-0.284565 q 0.25408,-2.357823 1.5956,-3.384289 1.34152,-1.026466 3.3538,-1.026466 2.20538,0 3.46559,1.189074 1.26022,1.189075 1.26022,2.957443 0,1.00614 -0.36587,1.920813 -0.35571,0.904509 -1.13826,1.900486 -0.51832,0.660598 -1.87,1.900487 -1.35168,1.23989 -1.71755,1.646411 -0.35571,0.406522 -0.57929,0.792717 z"
         style="font-style:normal;font-variant:normal;font-weight:bold;font-stretch:normal;font-size:20.81388855px;font-family:Arial;-inkscape-font-specification:'Arial Bold';fill:#030303;fill-opacity:0.48627451;stroke-width:0.26458332"
         id="path4593-3" />
    </g>
    <ellipse
       style="display:inline;opacity:1;vector-effect:none;fill:#030303;fill-opacity:0.48627451;stroke:none;stroke-width:0.35140389;stroke-linecap:round;stroke-linejoin:round;stroke-miterlimit:4;stroke-dasharray:none;stroke-dashoffset:0;stroke-opacity:0.98529412;filter:url(#filter6561)"
       id="path4612"
       ry="1.3597476"
       rx="1.4032892"
       cy="231.69623"
       cx="57.160614" />
  </g>
  <g
     inkscape:groupmode="layer"
     id="layer7"
     inkscape:label="Logo"
     style="display:inline"
     transform="translate(0,-219.916)">
    <g
       transform="translate(-14.055991,191.23135)"
       aria-label="i3D"
       style="font-style:normal;font-variant:normal;font-weight:normal;font-stretch:normal;font-size:10.58333302px;line-height:1.25;font-family:Arial;-inkscape-font-specification:Arial;letter-spacing:0px;word-spacing:0px;fill:#ffffff;fill-opacity:1;stroke:none;stroke-width:0.26458332"
       id="text4531">
      <path
         d="M 68.112275,52.827377 V 42.034238 h 2.855812 v 10.793139 z"
         style="font-style:normal;font-variant:normal;font-weight:bold;font-stretch:normal;font-size:20.81388855px;font-family:Arial;-inkscape-font-specification:'Arial Bold';fill:#ffffff;stroke-width:0.26458332"
         id="path4605"
         inkscape:connector-curvature="0"
         sodipodi:nodetypes="ccccc" />
      <path
         inkscape:connector-curvature="0"
         d="m 73.173465,48.873958 2.764344,-0.33538 q 0.13212,1.056955 0.711412,1.615922 0.579293,0.558967 1.402499,0.558967 0.884183,0 1.483802,-0.67076 0.609782,-0.67076 0.609782,-1.80902 0,-1.077281 -0.579293,-1.707389 -0.579292,-0.630108 -1.412661,-0.630108 -0.548804,0 -1.311031,0.213423 l 0.315054,-2.327334 q 1.158585,0.03049 1.768367,-0.497988 0.609782,-0.538641 0.609782,-1.422825 0,-0.752064 -0.447173,-1.199237 -0.447174,-0.447174 -1.189075,-0.447174 -0.731738,0 -1.250053,0.508152 -0.518314,0.508151 -0.630108,1.483802 l -2.632225,-0.447173 q 0.274402,-1.351683 0.823206,-2.154563 0.558966,-0.813042 1.544781,-1.270379 0.995977,-0.467499 2.225703,-0.467499 2.103748,0 3.374127,1.34152 1.046792,1.097607 1.046792,2.47978 0,1.961465 -2.1444,3.130213 1.280542,0.274402 2.04277,1.229727 0.77239,0.955325 0.77239,2.307008 0,1.961466 -1.432987,3.343638 -1.432988,1.382172 -3.567224,1.382172 -2.022444,0 -3.353801,-1.158585 -1.331357,-1.168749 -1.54478,-3.04891 z"
         style="font-style:normal;font-variant:normal;font-weight:bold;font-stretch:normal;font-size:20.81388855px;font-family:Arial;-inkscape-font-specification:'Arial Bold';fill:#ffffff;stroke-width:0.26458332"
         id="path4607" />
      <path
         inkscape:connector-curvature="0"
         d="m 85.480895,37.928373 h 5.4982 q 1.859835,0 2.835486,0.284565 1.311031,0.386195 2.24603,1.372009 0.934999,0.985814 1.422824,2.418802 0.487826,1.422824 0.487826,3.516409 0,1.839508 -0.457336,3.170865 -0.558967,1.626086 -1.595596,2.632226 -0.782554,0.762227 -2.113911,1.189074 -0.995977,0.315054 -2.662714,0.315054 h -5.660809 z m 3.008258,2.520432 v 9.868304 h 2.24603 q 1.260215,0 1.819182,-0.142283 0.731738,-0.182934 1.209401,-0.619945 0.487825,-0.43701 0.792716,-1.432987 0.304891,-1.00614 0.304891,-2.733856 0,-1.727715 -0.304891,-2.652551 -0.304891,-0.924836 -0.853694,-1.44315 -0.548804,-0.518315 -1.392336,-0.70125 -0.630108,-0.142282 -2.469616,-0.142282 z"
         style="font-style:normal;font-variant:normal;font-weight:bold;font-stretch:normal;font-size:20.81388855px;font-family:Arial;-inkscape-font-specification:'Arial Bold';fill:#ffffff;stroke-width:0.26458332"
         id="path4609" />
    </g>
    <g
       transform="translate(-14.055991,191.23135)"
       aria-label="0"
       style="font-style:normal;font-variant:normal;font-weight:normal;font-stretch:normal;font-size:10.58333302px;line-height:1.25;font-family:Arial;-inkscape-font-specification:Arial;letter-spacing:0px;word-spacing:0px;fill:#ffffff;fill-opacity:1;stroke:none;stroke-width:0.26458332"
       id="text4531-1">
      <path
         inkscape:connector-curvature="0"
         d="m 119.79974,37.974451 q 2.16473,0 3.38429,1.54478 1.45332,1.829346 1.45332,6.06733 0,4.227821 -1.46348,6.077493 -1.2094,1.524455 -3.37413,1.524455 -2.17489,0 -3.50624,-1.666737 -1.33136,-1.676901 -1.33136,-5.9657 0,-4.207495 1.46348,-6.057167 1.2094,-1.524454 3.37412,-1.524454 z m 0,2.367986 q -0.51831,0 -0.92483,0.33538 -0.40652,0.325217 -0.63011,1.178912 -0.29473,1.10777 -0.29473,3.729832 0,2.622062 0.26424,3.607876 0.26424,0.975651 0.6606,1.300868 0.40652,0.325217 0.92483,0.325217 0.51832,0 0.92484,-0.325217 0.40652,-0.33538 0.63011,-1.189074 0.29472,-1.097608 0.29472,-3.71967 0,-2.622062 -0.26423,-3.597713 -0.26424,-0.985814 -0.67076,-1.311031 -0.39636,-0.33538 -0.91468,-0.33538 z"
         style="font-style:normal;font-variant:normal;font-weight:bold;font-stretch:normal;font-size:20.81388855px;font-family:Arial;-inkscape-font-specification:'Arial Bold';fill:#ffffff;stroke-width:0.26458332"
         id="path4602" />
    </g>
    <g
       transform="translate(-14.055991,191.23135)"
       aria-label="2"
       style="font-style:normal;font-variant:normal;font-weight:normal;font-stretch:normal;font-size:10.58333302px;line-height:1.25;font-family:Arial;-inkscape-font-specification:Arial;letter-spacing:0px;word-spacing:0px;fill:#ffffff;fill-opacity:1;stroke:none;stroke-width:0.26458332"
       id="text4531-1-6">
      <path
         inkscape:connector-curvature="0"
         d="m 113.38792,50.157244 v 2.652551 h -10.01059 q 0.16261,-1.504128 0.97565,-2.845648 0.81304,-1.351684 3.21152,-3.577388 1.93098,-1.798856 2.36799,-2.439127 0.58945,-0.884184 0.58945,-1.748042 0,-0.955324 -0.51831,-1.463476 -0.50815,-0.518315 -1.41266,-0.518315 -0.89435,0 -1.42283,0.538641 -0.52848,0.538641 -0.60978,1.788694 l -2.84565,-0.284565 q 0.25408,-2.357824 1.5956,-3.38429 1.34152,-1.026466 3.3538,-1.026466 2.20538,0 3.46559,1.189075 1.26022,1.189074 1.26022,2.957442 0,1.00614 -0.36587,1.920813 -0.35571,0.90451 -1.13826,1.900487 -0.51832,0.660597 -1.87,1.900487 -1.35168,1.239889 -1.71755,1.646411 -0.35571,0.406521 -0.57929,0.792716 z"
         style="font-style:normal;font-variant:normal;font-weight:bold;font-stretch:normal;font-size:20.81388855px;font-family:Arial;-inkscape-font-specification:'Arial Bold';fill:#ffffff;stroke-width:0.26458332"
         id="path4599" />
    </g>
    <g
       transform="translate(-14.055991,191.23135)"
       aria-label="0"
       style="font-style:normal;font-variant:normal;font-weight:normal;font-stretch:normal;font-size:10.58333302px;line-height:1.25;font-family:Arial;-inkscape-font-specification:Arial;letter-spacing:0px;word-spacing:0px;fill:#ffffff;fill-opacity:1;stroke:none;stroke-width:0.26458332"
       id="text4531-1-8">
      <path
         inkscape:connector-curvature="0"
         d="m 142.43079,38.006631 q 2.16472,0 3.38429,1.544781 1.45331,1.829346 1.45331,6.06733 0,4.227821 -1.46348,6.077493 -1.2094,1.524455 -3.37412,1.524455 -2.17489,0 -3.50625,-1.666738 -1.33136,-1.6769 -1.33136,-5.965699 0,-4.207495 1.46348,-6.057167 1.2094,-1.524455 3.37413,-1.524455 z m 0,2.367987 q -0.51832,0 -0.92484,0.33538 -0.40652,0.325217 -0.63011,1.178911 -0.29473,1.107771 -0.29473,3.729833 0,2.622062 0.26424,3.607876 0.26424,0.975651 0.6606,1.300868 0.40652,0.325217 0.92484,0.325217 0.51831,0 0.92483,-0.325217 0.40652,-0.33538 0.63011,-1.189074 0.29473,-1.097608 0.29473,-3.71967 0,-2.622062 -0.26424,-3.597713 -0.26424,-0.985814 -0.67076,-1.311031 -0.39636,-0.33538 -0.91467,-0.33538 z"
         style="font-style:normal;font-variant:normal;font-weight:bold;font-stretch:normal;font-size:20.81388855px;font-family:Arial;-inkscape-font-specification:'Arial Bold';fill:#ffffff;stroke-width:0.26458332"
         id="path4596" />
    </g>
    <g
       transform="translate(-14.055991,191.23135)"
       aria-label="2"
       style="font-style:normal;font-variant:normal;font-weight:normal;font-stretch:normal;font-size:10.58333302px;line-height:1.25;font-family:Arial;-inkscape-font-specification:Arial;letter-spacing:0px;word-spacing:0px;fill:#ffffff;fill-opacity:1;stroke:none;stroke-width:0.26458332"
       id="text4531-1-6-6">
      <path
         inkscape:connector-curvature="0"
         d="m 136.01897,50.189425 v 2.652551 h -10.01059 q 0.16261,-1.504128 0.97565,-2.845649 0.81304,-1.351683 3.21152,-3.577387 1.93098,-1.798856 2.36799,-2.439127 0.58945,-0.884184 0.58945,-1.748042 0,-0.955325 -0.51831,-1.463476 -0.50815,-0.518315 -1.41266,-0.518315 -0.89435,0 -1.42283,0.538641 -0.52848,0.53864 -0.60978,1.788693 l -2.84565,-0.284565 q 0.25408,-2.357823 1.5956,-3.384289 1.34152,-1.026466 3.3538,-1.026466 2.20538,0 3.46559,1.189074 1.26022,1.189075 1.26022,2.957443 0,1.00614 -0.36587,1.920813 -0.35571,0.904509 -1.13826,1.900486 -0.51832,0.660598 -1.87,1.900487 -1.35168,1.23989 -1.71755,1.646411 -0.35571,0.406522 -0.57929,0.792717 z"
         style="font-style:normal;font-variant:normal;font-weight:bold;font-stretch:normal;font-size:20.81388855px;font-family:Arial;-inkscape-font-specification:'Arial Bold';fill:#ffffff;stroke-width:0.26458332"
         id="path4593" />
    </g>
    <path
       style="fill:#ffffff;fill-opacity:0.58039216;stroke:none;stroke-width:0.26458332px;stroke-linecap:butt;stroke-linejoin:miter;stroke-opacity:1"
       d="m 54.097839,230.14449 c 1.727305,-6.94573 14.328261,-7.62932 26.883556,-5.9295 -0.889011,0.0481 -19.809787,-1.70045 -23.954238,6.47284 z"
       id="path4614"
       inkscape:connector-curvature="0"
       sodipodi:nodetypes="cccc" />
    <ellipse
       style="display:inline;opacity:1;vector-effect:none;fill:#ffffff;fill-opacity:1;stroke:none;stroke-width:0.35140389;stroke-linecap:round;stroke-linejoin:round;stroke-miterlimit:4;stroke-dasharray:none;stroke-dashoffset:0;stroke-opacity:0.98529412"
       id="path4612-7"
       ry="1.3597476"
       rx="1.4032892"
       cy="230.41243"
       cx="55.573112" />
  </g>
</svg>
