<svg xmlns="http://www.w3.org/2000/svg" viewBox="0 0 1920 1082.19"><defs><style>.cls-1{fill:#94bf00;}.cls-2{fill:#069;}.cls-3,.cls-4,.cls-6{opacity:0.2;font-family:Roboto-Bold, Roboto Bold;}.cls-3{font-size:316.05px;}.cls-3,.cls-4,.cls-52,.cls-53,.cls-6{fill:#fff;}.cls-3,.cls-4,.cls-53,.cls-6{font-weight:700;}.cls-4{font-size:315.05px;}.cls-5{fill:#f7931e;}.cls-6{font-size:331.42px;}.cls-7,.cls-8{fill:none;stroke:#fff;stroke-width:5px;}.cls-7{stroke-miterlimit:10;}.cls-8{stroke-linejoin:round;}.cls-9{font-size:72px;fill:#f2f2f2;font-family:OpenSans-Regular, OpenSans Regular;letter-spacing:-0.08em;}.cls-10{letter-spacing:-0.05em;}.cls-11{letter-spacing:-0.02em;}.cls-12{letter-spacing:-0.06em;}.cls-13{letter-spacing:-0.04em;}.cls-14{letter-spacing:-0.04em;}.cls-15{letter-spacing:-0.03em;}.cls-16{letter-spacing:-0.05em;}.cls-17{letter-spacing:-0.06em;}.cls-18{letter-spacing:-0.02em;}.cls-19{letter-spacing:-0.08em;}.cls-20{letter-spacing:-0.04em;}.cls-21{letter-spacing:-0.05em;}.cls-22{letter-spacing:-0.04em;}.cls-23{letter-spacing:-0.05em;}.cls-24{letter-spacing:-0.05em;}.cls-25{letter-spacing:-0.05em;}.cls-26{letter-spacing:-0.05em;}.cls-27{letter-spacing:-0.05em;}.cls-28{letter-spacing:-0.05em;}.cls-29{letter-spacing:-0.06em;}.cls-30{letter-spacing:-0.06em;}.cls-31{letter-spacing:-0.05em;}.cls-32{letter-spacing:-0.04em;}.cls-33{letter-spacing:-0.05em;}.cls-34{letter-spacing:-0.02em;}.cls-35{letter-spacing:-0.05em;}.cls-36{letter-spacing:-0.05em;}.cls-37{letter-spacing:-0.06em;}.cls-38{letter-spacing:-0.06em;}.cls-39{letter-spacing:-0.02em;}.cls-40{letter-spacing:-0.04em;}.cls-41{letter-spacing:-0.05em;}.cls-42{letter-spacing:-0.04em;}.cls-43{letter-spacing:-0.05em;}.cls-44{letter-spacing:-0.05em;}.cls-45{letter-spacing:-0.04em;}.cls-46{letter-spacing:-0.05em;}.cls-47{letter-spacing:-0.05em;}.cls-48{letter-spacing:-0.04em;}.cls-49{letter-spacing:-0.04em;}.cls-50{letter-spacing:-0.05em;}.cls-51{opacity:0.71;}.cls-53{font-size:234.96px;font-family:OpenSans-Bold, Open Sans;}</style></defs><g id="Layer_2" data-name="Layer 2"><polygon class="cls-1" points="1920 1.24 1920 541.21 362.02 541.21 55.03 1.24 1920 1.24"/><polygon class="cls-2" points="1920 541.21 1920 1081.19 125.04 1081.19 362.07 541.26 362.02 541.21 1920 541.21"/></g><g id="Layer_10" data-name="Layer 10"><text class="cls-3" transform="matrix(-0.43, 0.97, -1, 0, 372.5, 523.89)">D</text></g><g id="Layer_9" data-name="Layer 9"><text class="cls-4" transform="matrix(1.13, 0.01, 0.49, 0.87, 341.37, 538.7)">D</text></g><g id="Layer_6" data-name="Layer 6"><polygon class="cls-5" points="362.07 541.26 125.04 1081.24 0 1081.24 0 1.24 55.03 1.24 362.07 541.26"/></g><g id="Layer_11" data-name="Layer 11"><text class="cls-6" transform="matrix(-0.55, -0.96, 0.4, -0.92, 370.61, 561.25)">D</text></g><g id="Layer_8" data-name="Layer 8"><polyline class="cls-7" points="1920 541.21 362.02 541.21 55.03 1.24"/><polyline class="cls-8" points="125.04 1081.19 362.07 541.26 362.02 541.21 1920 541.21"/></g><g id="Layer_7" data-name="Layer 7"><text class="cls-9" transform="translate(603.76 667.2)">A<tspan class="cls-10" x="38.61" y="0">C</tspan><tspan class="cls-11" x="76.81" y="0">M </tspan><tspan class="cls-12" x="146.79" y="0">S</tspan><tspan class="cls-13" x="178.2" y="0">I</tspan><tspan class="cls-10" x="192.35" y="0">G</tspan><tspan class="cls-14" x="235.3" y="0">G</tspan><tspan class="cls-15" x="278.78" y="0">R</tspan><tspan class="cls-16" x="315.7" y="0">A</tspan><tspan class="cls-17" x="355.97" y="0">P</tspan><tspan class="cls-18" x="389.73" y="0">H </tspan><tspan class="cls-19" x="448.77" y="0">S</tspan><tspan class="cls-20" x="478.63" y="0">y</tspan><tspan class="cls-21" x="509.75" y="0">m</tspan><tspan class="cls-22" x="566.19" y="0">p</tspan><tspan class="cls-23" x="604.53" y="0">o</tspan><tspan class="cls-24" x="640.32" y="0">s</tspan><tspan class="cls-25" x="664.98" y="0">i</tspan><tspan class="cls-26" x="677.98" y="0">u</tspan><tspan class="cls-18" x="714.07" y="0">m </tspan><tspan class="cls-27" x="786.21" y="0">o</tspan><tspan class="cls-18" x="822.49" y="0">n</tspan><tspan class="cls-28"><tspan x="0" y="84">I</tspan><tspan class="cls-29" x="13.69" y="84">n</tspan><tspan class="cls-30" x="49.59" y="84">t</tspan><tspan class="cls-31" x="69.33" y="84">e</tspan><tspan class="cls-32" x="102.09" y="84">r</tspan><tspan class="cls-33" x="122.46" y="84">a</tspan><tspan class="cls-34" x="153.75" y="84">c</tspan><tspan class="cls-35" x="184.36" y="84">t</tspan><tspan class="cls-36" x="204.46" y="84">i</tspan><tspan class="cls-37" x="218.04" y="84">v</tspan><tspan class="cls-18" x="248.42" y="84">e </tspan><tspan class="cls-38" x="296.58" y="84">3</tspan><tspan class="cls-39" x="329.42" y="84">D </tspan><tspan class="cls-40" x="389.47" y="84">G</tspan><tspan class="cls-32" x="433" y="84">r</tspan><tspan class="cls-41" x="453.36" y="84">a</tspan><tspan class="cls-42" x="484.44" y="84">p</tspan><tspan class="cls-43" x="522.37" y="84">h</tspan><tspan class="cls-44" x="558.67" y="84">i</tspan><tspan class="cls-45" x="572.02" y="84">c</tspan><tspan class="cls-18" x="601.72" y="84">s </tspan><tspan class="cls-46" x="642.33" y="84">a</tspan><tspan class="cls-47" x="673.41" y="84">n</tspan><tspan class="cls-18" x="710.12" y="84">d </tspan><tspan class="cls-48" x="762.83" y="84">G</tspan><tspan class="cls-46" x="806.44" y="84">a</tspan><tspan class="cls-49" x="837.52" y="84">m</tspan><tspan class="cls-50" x="894.48" y="84">e</tspan><tspan class="cls-18" x="927.01" y="84">s</tspan></tspan></text></g><g id="Layer_12" data-name="Layer 12"><g class="cls-51"><path class="cls-52" d="M622.36,329.93a35,35,0,0,1,1.78-4.28c.54-1.11,1.08-2.13,1.63-3.16,1.11-2,2.27-3.86,3.45-5.66a105.31,105.31,0,0,1,7.59-10,125.06,125.06,0,0,1,17.26-16.56,157.08,157.08,0,0,1,39.57-22.69,234.52,234.52,0,0,1,42-11.53,370.8,370.8,0,0,1,42.07-5.36,464.57,464.57,0,0,1,83.62,1.61c27.51,2.66,54.9,5.55,82.27,9.21a1.32,1.32,0,0,1-.34,2.62h0c-27.24-3.35-54.79-4.52-82.25-4.62-13.79-.1-27.37.23-40.92,1.4s-27,3.08-40.26,5.6a340.48,340.48,0,0,0-39,9.89,203.23,203.23,0,0,0-35.94,15.25,119.67,119.67,0,0,0-29.12,22.56A91.2,91.2,0,0,0,665.12,328a57.42,57.42,0,0,0-3.82,7.18c-.52,1.19-1,2.36-1.35,3.47l-.46,1.56c-.07.31-.32,1.26,0,.55a19.33,19.33,0,1,1-37.11-10.85Z" transform="translate(0 1.24)"/></g><text class="cls-53" transform="translate(603.76 500.18)">i3D 2020</text></g></svg>