<svg width="120" height="120" clip-rule="evenodd" fill-rule="evenodd" stroke-linecap="square" stroke-miterlimit="10" version="1.1" viewBox="0 0 128 128" xml:space="preserve" xmlns="http://www.w3.org/2000/svg" xmlns:serif="http://www.serif.com/"><defs><clipPath id="clipPath1177"><rect width="128" height="128" stroke-width="1.034"/></clipPath></defs>
    
    
    <g clip-path="url(#clipPath1177)" clip-rule="evenodd" fill-rule="evenodd" stroke-linecap="square" stroke-miterlimit="10">
        
        
    <g serif:id="Layer 2">
            <path d="m21.5 0 33.5 64h73v-64z" fill="#94bf00" fill-rule="nonzero"/>
            <path d="m55 64-33.5 64h106.5v-64z" fill="#069" fill-rule="nonzero"/>
            <g serif:id="Layer 6">
                <path d="m0 0v128h21.5l33.5-64-33.5-64z" fill="#f7931e" fill-rule="nonzero" stroke-width=".63075"/>
            </g>
            <g fill="none" stroke="#fff" stroke-linecap="square" stroke-width="2px" serif:id="Layer 8">
                <path d="m128 64h-73"/>
                <path d="m55 64-33.5-64"/>
                <path d="M 21.5,128 55,64" stroke-linejoin="round"/>
            </g>
        </g><g transform="translate(-2.0009 6.0142)" fill="#fff" opacity=".55">
            
            
            
        <path d="m28.748 4.0995 25.645-0.039569q8.6748-0.013384 13.765 1.0087 6.8472 1.3872 13.077 4.9454 6.2302 3.5583 11.223 8.7369 4.9731 5.1419 8.9426 12.713 3.4878 6.6522 3.879 11.47 0.47597 5.8844-2.4514 9.5304-2.2048 2.7621-7.6053 4.3153-4.0481 1.1465-11.822 1.1585l-26.403 0.04074zm18.81 9.093 18.711 35.687 10.476-0.01617q5.878-0.0091 8.2154-0.52763 3.0662-0.66681 4.4655-2.2506 1.4468-1.5839 0.98042-5.1878-0.4856-3.6407-3.7614-9.8887-3.2758-6.2479-6.4515-9.5902t-6.7181-5.2127q-3.5425-1.8704-7.8238-2.5259-3.2088-0.51-11.789-0.49676z" stroke-width=".88094"/><path d="m118.78 57.976-11.723 22.385q-3.9656 7.572-7.2259 11.544-4.3969 5.338-10.478 9.1455-6.0815 3.8076-13.064 5.7949-6.9402 1.9873-15.622 1.9892-7.6279 2e-3 -12.173-1.8592-5.5511-2.2743-7.5129-6.4939-1.4921-3.1854-0.42338-8.6054 0.81722-4.0547 4.3711-10.841l12.07-23.047zm-16.866 12.25-40.921 0.0087-4.7891 9.1443q-2.6871 5.1308-3.2889 7.4064-0.80167 2.979-8e-3 4.9233 0.77199 1.9857 4.2519 3.2261 3.5221 1.2404 10.686 1.2389 7.1643-0.0015 11.649-1.2436 4.4851-1.2421 7.8046-3.4769 3.3195-2.2348 5.8767-5.6693 1.9335-2.5655 5.8558-10.055z" stroke-width=".92332"/><path d="m26.493 116.25-11.366-21.71q-3.8448-7.3438-5.279-12.309-1.9195-6.6871-1.8338-14.234 0.085637-7.5473 2.0113-15.078 1.9049-7.4907 6.1917-15.678 3.7665-7.194 7.438-10.595 4.4851-4.1522 8.6882-3.9938 3.1785 0.10905 6.8047 3.6967 2.704 2.7006 6.1496 9.2819l11.702 22.352zm-1.0581-21.735 20.206-38.593-4.6431-8.8687q-2.6052-4.9761-4.0521-6.6268-1.8873-2.1739-3.7695-2.351-1.9033-0.21716-4.5729 2.4741-2.6904 2.731-6.2281 9.4878-3.5376 6.7568-4.801 11.578-1.2634 4.8208-1.1901 9.0149 0.07324 4.1941 1.4425 8.2403 1.0113 3.0445 4.814 10.308z" stroke-width=".83424"/></g></g>
        
    
    
</svg>
