<?xml version="1.0" encoding="UTF-8" standalone="no"?>
<!DOCTYPE svg PUBLIC "-//W3C//DTD SVG 1.1//EN" "http://www.w3.org/Graphics/SVG/1.1/DTD/svg11.dtd">
<svg width="100%" height="100%" viewBox="0 0 400 220" version="1.1" xmlns="http://www.w3.org/2000/svg" xmlns:xlink="http://www.w3.org/1999/xlink" xml:space="preserve" xmlns:serif="http://www.serif.com/" style="fill-rule:evenodd;clip-rule:evenodd;stroke-linecap:square;stroke-miterlimit:10;">
    <g id="Layer-2" serif:id="Layer 2">
        <path d="M-54.05,-115.118L56.269,80.463L616.142,80.463L616.142,-115.118L-54.05,-115.118Z" style="fill:rgb(148,191,0);fill-rule:nonzero;"/>
        <path d="M56.111,80.463L56.128,80.481L-28.892,283.487L614.947,283.487L614.947,80.463L56.111,80.463Z" style="fill:rgb(0,102,153);fill-rule:nonzero;"/>
        <g id="Layer-6" serif:id="Layer 6">
            <path d="M-48.879,-82.255L-48.879,243.225L-11.492,243.225L59.379,80.492L-32.425,-82.255L-48.879,-82.255Z" style="fill:rgb(247,147,30);fill-rule:nonzero;"/>
        </g>
        <g id="Layer-8" serif:id="Layer 8">
            <path d="M412.075,80L59.918,80" style="fill:none;fill-rule:nonzero;stroke:white;stroke-width:2px;"/>
            <path d="M59.918,79.846L11.157,-6.602" style="fill:none;fill-rule:nonzero;stroke:white;stroke-width:2px;stroke-linecap:round;"/>
            <path d="M-4.858,228.622L59.935,79.858L59.922,79.845" style="fill:none;fill-rule:nonzero;stroke:white;stroke-width:2px;stroke-linecap:round;stroke-linejoin:round;"/>
        </g>
    </g>
    <g opacity="0.55">
        <g>
            <g transform="matrix(-0.404556,0.914513,-0.931934,-0.00063869,-149.16,-170.071)">
                <text x="266.459px" y="-343.621px" style="font-family:'Arial-BoldMT', 'Arial', sans-serif;font-weight:700;font-size:92.618px;fill:white;">D</text>
            </g>
        </g>
        <g>
            <g transform="matrix(0.999986,0.00526143,0.435038,0.778352,29.7951,-15.5238)">
                <text x="-29.25px" y="121.515px" style="font-family:'Arial-BoldMT', 'Arial', sans-serif;font-weight:700;font-size:97.075px;fill:white;">D</text>
            </g>
        </g>
        <g>
            <g transform="matrix(-0.493234,-0.869897,0.3633,-0.83231,-67.9485,-327.685)">
                <text x="-356.644px" y="-124.417px" style="font-family:'Arial-BoldMT', 'Arial', sans-serif;font-weight:700;font-size:100.327px;fill:white;">D</text>
            </g>
        </g>
    </g>
    <g id="Layer-12" serif:id="Layer 12">
        <g opacity="0.85">
            <path d="M151.331,28.913C151.543,28.295 151.645,28.123 151.796,27.787C151.937,27.495 152.078,27.225 152.223,26.955C152.512,26.432 152.814,25.939 153.124,25.466C153.754,24.531 154.403,23.646 155.103,22.833C156.492,21.193 158.016,19.762 159.609,18.479C162.846,15.96 166.218,13.961 169.94,12.507C173.587,11.076 177.252,10.17 180.912,9.474C184.571,8.774 188.235,8.335 191.895,8.064C199.199,7.498 206.555,7.731 213.723,8.488C220.904,9.187 228.055,9.947 235.199,10.911C235.388,10.936 235.52,11.111 235.495,11.302C235.47,11.491 235.298,11.624 235.111,11.601L235.103,11.6C227.992,10.72 220.8,10.41 213.632,10.383C210.033,10.357 206.488,10.445 202.951,10.752C199.417,11.07 195.905,11.562 192.44,12.226C188.977,12.901 185.561,13.761 182.25,14.827C178.949,15.908 175.743,17.227 172.867,18.839C170.059,20.409 167.391,22.478 165.266,24.775C164.208,25.933 163.263,27.153 162.495,28.409C162.103,29.034 161.775,29.672 161.497,30.299C161.363,30.613 161.243,30.919 161.144,31.213L161.024,31.621C161.006,31.705 160.942,31.954 161.019,31.767C160.237,34.464 157.435,36.011 154.76,35.223C152.084,34.435 150.55,31.61 151.331,28.913" style="fill:white;fill-rule:nonzero;"/>
        </g>
        <clipPath id="_clip1">
            <path d="M150.31,39.144L150.04,77.757L412.881,79.115L413.407,19.413L170.282,19.354L164.359,38.6L150.31,39.144Z"/>
        </clipPath>
        <g clip-path="url(#_clip1)">
            <text x="150.197px" y="71.868px" style="font-family:'Arial-BoldMT', 'Arial', sans-serif;font-weight:700;font-size:58.667px;fill-opacity:0.7;">i3D {{ include.year }}</text>
        </g>
        <clipPath id="_clip2">
            <path d="M147.32,36.131L147.05,74.743L409.891,76.101L410.417,16.399L167.292,16.341L161.369,35.586L147.32,36.131Z"/>
        </clipPath>
        <g clip-path="url(#_clip2)">
            <text x="147.207px" y="68.855px" style="font-family:'Arial-BoldMT', 'Arial', sans-serif;font-weight:700;font-size:58.667px;fill:white;">i3D {{ include.year }}</text>
        </g>
    </g>
</svg>
