<?xml version="1.0" encoding="UTF-8" standalone="no"?>
<svg
   clip-rule="evenodd"
   fill-rule="evenodd"
   stroke-linecap="square"
   stroke-miterlimit="10"
   version="1.1"
   viewBox="0 0 419.04762 220"
   xml:space="preserve"
   id="svg59"
   sodipodi:docname="banner_narrow_subtitle_template_ink.svg"
   width="600"
   height="315"
   inkscape:version="1.2.1 (9c6d41e410, 2022-07-14)"
   xmlns:inkscape="http://www.inkscape.org/namespaces/inkscape"
   xmlns:sodipodi="http://sodipodi.sourceforge.net/DTD/sodipodi-0.dtd"
   xmlns="http://www.w3.org/2000/svg"
   xmlns:svg="http://www.w3.org/2000/svg"
   xmlns:serif="http://www.serif.com/"><sodipodi:namedview
   id="namedview61"
   pagecolor="#505050"
   bordercolor="#ffffff"
   borderopacity="1"
   inkscape:showpageshadow="0"
   inkscape:pageopacity="0"
   inkscape:pagecheckerboard="1"
   inkscape:deskcolor="#505050"
   showgrid="false"
   showguides="true"
   inkscape:zoom="1.3888954"
   inkscape:cx="236.87889"
   inkscape:cy="122.39943"
   inkscape:window-width="1920"
   inkscape:window-height="1017"
   inkscape:window-x="1912"
   inkscape:window-y="-8"
   inkscape:window-maximized="1"
   inkscape:current-layer="svg59"><sodipodi:guide
     position="135.77079,240.61705"
     orientation="1,0"
     id="guide344"
     inkscape:locked="false" /></sodipodi:namedview><defs
   id="defs13"><rect
     x="150.57169"
     y="100.38112"
     width="429.97174"
     height="72.228607"
     id="rect461" /><filter
     id="filter712"
     x="-0.01553215"
     y="-0.083949051"
     width="1.0483222"
     height="1.2611748"
     color-interpolation-filters="sRGB"><feFlood
       flood-color="rgb(0,0,0)"
       flood-opacity=".50196"
       result="flood"
       id="feFlood2" /><feComposite
       in="flood"
       in2="SourceGraphic"
       operator="in"
       result="composite1"
       id="feComposite4" /><feGaussianBlur
       in="composite1"
       result="blur"
       stdDeviation="1.5"
       id="feGaussianBlur6" /><feOffset
       dx="4"
       dy="4"
       result="offset"
       id="feOffset8" /><feComposite
       in="SourceGraphic"
       in2="offset"
       result="composite2"
       id="feComposite10" /></filter></defs>
    <g
   serif:id="Layer 2"
   id="g31">
        <path
   d="M -54.05,-115.12 56.27,80.46 h 559.87 v -195.58 z"
   fill="#94bf00"
   fill-rule="nonzero"
   id="path15" />
        <path
   d="m 56.111,80.463 0.017,0.018 -85.02,203.01 h 643.84 V 80.471 H 56.108 Z"
   fill="#006699"
   fill-rule="nonzero"
   id="path17" />
        <g
   serif:id="Layer 6"
   id="g21">
            <path
   d="m -48.879,-82.255 v 325.48 h 37.387 L 59.379,80.495 -32.425,-82.255 Z"
   fill="#f7931e"
   fill-rule="nonzero"
   id="path19" />
        </g>
        <g
   fill="none"
   stroke="#ffffff"
   stroke-width="2px"
   serif:id="Layer 8"
   id="g29">
            <path
   d="M 609.7885,80.559827 H 60.479827"
   id="path23"
   style="stroke-width:2.49786px" />
            <path
   d="M 59.918,79.846 11.157,-6.602"
   stroke-linecap="round"
   id="path25" />
            <path
   d="M -4.858,228.62 59.935,79.86 59.922,79.847"
   stroke-linecap="round"
   stroke-linejoin="round"
   id="path27" />
        </g>
    </g>
    <g
   opacity="0.55"
   id="g39">
        
            <path
   d="m 122.35,79.992 -9.898,22.374 c -2.232,5.046 -4.326,8.892 -6.284,11.538 -2.641,3.556 -5.885,6.602 -9.733,9.136 -3.848,2.535 -8.038,4.463 -12.571,5.784 -4.533,1.32 -9.693,1.979 -15.481,1.975 -5.086,-0.004 -9.195,-0.627 -12.327,-1.87 -3.824,-1.52 -6.505,-3.687 -8.043,-6.501 -1.168,-2.124 -1.543,-4.993 -1.125,-8.606 0.324,-2.702 1.486,-6.315 3.487,-10.836 l 10.19,-23.037 z m -15.867,12.234 -40.923,-0.028 -4.044,9.14 c -1.512,3.419 -2.407,5.887 -2.685,7.404 -0.372,1.985 -0.244,3.633 0.385,4.944 0.629,1.31 2.144,2.38 4.546,3.209 2.401,0.829 5.99,1.245 10.767,1.249 4.776,0.003 8.626,-0.408 11.549,-1.234 2.922,-0.825 5.43,-1.982 7.521,-3.469 2.092,-1.488 3.897,-3.376 5.415,-5.664 1.149,-1.71 2.828,-5.059 5.035,-10.05 z"
   fill="#ffffff"
   fill-rule="nonzero"
   id="path33" />
        
        
            <path
   d="m 30.194,24.855 25.643,0.135 c 5.782,0.03 10.383,0.398 13.801,1.102 4.599,0.956 9.019,2.635 13.259,5.036 4.241,2.401 8.085,5.333 11.534,8.797 3.448,3.464 6.588,7.729 9.42,12.796 2.488,4.452 3.922,8.285 4.301,11.499 0.461,3.927 -0.239,7.099 -2.101,9.517 -1.402,1.832 -3.885,3.253 -7.447,4.264 -2.67,0.747 -6.597,1.106 -11.779,1.079 L 60.424,78.941 Z m 19.144,9.223 20.023,35.824 10.475,0.055 c 3.918,0.021 6.65,-0.137 8.196,-0.472 2.027,-0.431 3.496,-1.171 4.406,-2.221 0.91,-1.049 1.162,-2.783 0.755,-5.201 -0.406,-2.417 -1.777,-5.717 -4.114,-9.898 -2.337,-4.181 -4.605,-7.394 -6.804,-9.637 -2.199,-2.243 -4.502,-3.996 -6.91,-5.26 -2.407,-1.263 -5.046,-2.123 -7.916,-2.58 -2.152,-0.354 -6.088,-0.547 -11.807,-0.577 z"
   fill="#ffffff"
   fill-rule="nonzero"
   id="path35" />
        
        
            <path
   d="M 33.093,139.58 20.021,116.526 c -2.947,-5.199 -5.028,-9.543 -6.243,-13.031 -1.627,-4.698 -2.606,-9.672 -2.937,-14.922 -0.331,-5.25 -0.05,-10.467 0.844,-15.65 0.894,-5.182 2.563,-10.573 5.007,-16.173 2.148,-4.92 4.361,-8.521 6.64,-10.803 2.784,-2.787 5.585,-4.077 8.403,-3.87 2.13,0.149 4.5,1.513 7.108,4.093 1.947,1.942 4.241,5.242 6.882,9.901 l 13.459,23.736 z m -2.738,-22.725 17.281,-39.591 -5.34,-9.417 c -1.997,-3.523 -3.522,-5.876 -4.574,-7.058 -1.374,-1.556 -2.698,-2.424 -3.973,-2.605 -1.276,-0.18 -2.739,0.642 -4.391,2.467 -1.652,1.825 -3.487,5.048 -5.504,9.669 -2.017,4.621 -3.323,8.594 -3.92,11.92 -0.596,3.326 -0.762,6.449 -0.497,9.369 0.264,2.921 0.958,5.805 2.082,8.652 0.833,2.142 2.707,5.784 5.622,10.926 z"
   fill="#ffffff"
   fill-rule="nonzero"
   id="path37" />
        
    </g>
    <g
   serif:id="Layer 12"
   id="g57"
   transform="translate(-15.365078)">
        <g
   opacity="0.85"
   id="g43">
            <path
   d="m 151.33,28.913 c 0.212,-0.618 0.314,-0.79 0.465,-1.126 0.141,-0.292 0.282,-0.562 0.427,-0.832 0.289,-0.523 0.591,-1.016 0.901,-1.489 0.63,-0.935 1.279,-1.82 1.979,-2.633 1.389,-1.64 2.913,-3.071 4.506,-4.354 3.237,-2.519 6.609,-4.518 10.331,-5.972 3.647,-1.431 7.312,-2.337 10.972,-3.033 3.659,-0.7 7.323,-1.139 10.983,-1.41 7.304,-0.566 14.66,-0.333 21.828,0.424 7.181,0.699 14.332,1.459 21.476,2.423 0.189,0.025 0.321,0.2 0.296,0.391 -0.025,0.189 -0.197,0.322 -0.384,0.299 L 235.102,11.6 c -7.111,-0.88 -14.303,-1.19 -21.471,-1.217 -3.599,-0.026 -7.144,0.062 -10.681,0.369 -3.534,0.318 -7.046,0.81 -10.511,1.474 -3.463,0.675 -6.879,1.535 -10.19,2.601 -3.301,1.081 -6.507,2.4 -9.383,4.012 -2.808,1.57 -5.476,3.639 -7.601,5.936 -1.058,1.158 -2.003,2.378 -2.771,3.634 -0.392,0.625 -0.72,1.263 -0.998,1.89 -0.134,0.314 -0.254,0.62 -0.353,0.914 l -0.12,0.408 c -0.018,0.084 -0.082,0.333 -0.005,0.146 -0.782,2.697 -3.584,4.244 -6.259,3.456 -2.676,-0.788 -4.21,-3.613 -3.429,-6.31"
   fill="#ffffff"
   fill-rule="nonzero"
   id="path41" />
        </g>
        
        <g
   filter="url(#filter712)"
   id="g55"><text
     x="255.207"
     y="68.855003"
     fill="#ffffff"
     font-family="Arial-BoldMT, Arial, sans-serif"
     font-size="58.667px"
     font-weight="700"
     id="text45">{{year}}</text><g
     fill="#ffffff"
     fill-rule="nonzero"
     id="g53">
            <rect
   x="151.42"
   y="38.432999"
   width="8.0489998"
   height="30.422001"
   id="rect47" />
            <path
   d="m 165.71,57.711 7.792,-0.945 c 0.248,1.986 0.916,3.504 2.005,4.555 1.088,1.05 2.406,1.575 3.953,1.575 1.662,0 3.06,-0.63 4.197,-1.89 1.136,-1.261 1.704,-2.96 1.704,-5.099 0,-2.025 -0.544,-3.629 -1.633,-4.813 -1.088,-1.184 -2.415,-1.776 -3.981,-1.776 -1.032,0 -2.263,0.201 -3.696,0.602 l 0.888,-6.56 c 2.177,0.057 3.839,-0.416 4.985,-1.418 1.145,-1.003 1.718,-2.335 1.718,-3.996 0,-1.413 -0.42,-2.54 -1.26,-3.38 -0.84,-0.841 -1.958,-1.261 -3.352,-1.261 -1.375,0 -2.549,0.478 -3.523,1.432 -0.974,0.955 -1.566,2.349 -1.776,4.183 l -7.419,-1.261 c 0.515,-2.54 1.293,-4.569 2.334,-6.087 1.041,-1.518 2.492,-2.712 4.354,-3.581 1.862,-0.869 3.949,-1.303 6.26,-1.303 3.953,0 7.123,1.26 9.51,3.781 1.967,2.063 2.95,4.393 2.95,6.99 0,3.686 -2.014,6.627 -6.044,8.823 2.406,0.515 4.331,1.671 5.772,3.466 1.442,1.795 2.163,3.963 2.163,6.502 0,3.686 -1.346,6.828 -4.039,9.425 -2.693,2.597 -6.044,3.896 -10.055,3.896 -3.8,0 -6.951,-1.094 -9.453,-3.28 -2.501,-2.187 -3.953,-5.047 -4.354,-8.58 z"
   id="path49" />
            <path
   d="m 200.37,26.86 h 15.497 c 3.495,0 6.159,0.267 7.992,0.802 2.464,0.726 4.574,2.015 6.331,3.867 1.757,1.853 3.094,4.12 4.01,6.803 0.917,2.684 1.375,5.992 1.375,9.926 0,3.457 -0.429,6.436 -1.289,8.938 -1.05,3.055 -2.549,5.528 -4.497,7.419 -1.471,1.432 -3.457,2.55 -5.959,3.352 -1.871,0.592 -4.373,0.888 -7.505,0.888 H 200.37 Z m 8.479,7.104 v 27.815 h 6.33 c 2.368,0 4.078,-0.134 5.128,-0.401 1.375,-0.344 2.516,-0.926 3.423,-1.747 0.907,-0.822 1.647,-2.173 2.22,-4.054 0.573,-1.881 0.86,-4.445 0.86,-7.691 0,-3.247 -0.287,-5.739 -0.86,-7.477 -0.573,-1.738 -1.375,-3.093 -2.406,-4.067 -1.031,-0.974 -2.339,-1.633 -3.924,-1.977 -1.184,-0.267 -3.505,-0.401 -6.961,-0.401 z"
   id="path51" />
        </g></g>
    </g>
<g
   id="g3044"
   transform="translate(-15.365078,-5.2063492)"><text
     xml:space="preserve"
     id="text502"
     style="font-style:normal;font-variant:normal;font-weight:normal;font-stretch:normal;font-size:22.3492px;font-family:Arial-BoldMT, Arial, sans-serif;-inkscape-font-specification:'Arial-BoldMT, Arial, sans-serif, Normal';font-variant-ligatures:normal;font-variant-caps:normal;font-variant-numeric:normal;font-variant-east-asian:normal;white-space:pre;shape-padding:0.5351;display:inline;fill:#ffffff;fill-opacity:1;stroke-linecap:square"
     x="151.10742"
     y="132.93616"><tspan
       sodipodi:role="line"
       id="tspan619"
       x="151.10742"
       y="132.93616"
       style="font-style:normal;font-variant:normal;font-weight:normal;font-stretch:normal;font-size:22.3492px;font-family:Arial-BoldMT, Arial, sans-serif;-inkscape-font-specification:'Arial-BoldMT, Arial, sans-serif, Normal';font-variant-ligatures:normal;font-variant-caps:normal;font-variant-numeric:normal;font-variant-east-asian:normal;text-align:start;letter-spacing:0px;text-anchor:start">ACM SIGGRAPH</tspan><tspan
       sodipodi:role="line"
       x="151.10742"
       y="160.87265"
       style="font-style:normal;font-variant:normal;font-weight:normal;font-stretch:normal;font-size:22.3492px;font-family:Arial-BoldMT, Arial, sans-serif;-inkscape-font-specification:'Arial-BoldMT, Arial, sans-serif, Normal';font-variant-ligatures:normal;font-variant-caps:normal;font-variant-numeric:normal;font-variant-east-asian:normal;text-align:start;letter-spacing:0px;text-anchor:start"
       id="tspan643">Symposium on Interactive</tspan><tspan
       sodipodi:role="line"
       x="151.10742"
       y="188.80916"
       style="font-style:normal;font-variant:normal;font-weight:normal;font-stretch:normal;font-size:22.3492px;font-family:Arial-BoldMT, Arial, sans-serif;-inkscape-font-specification:'Arial-BoldMT, Arial, sans-serif, Normal';font-variant-ligatures:normal;font-variant-caps:normal;font-variant-numeric:normal;font-variant-east-asian:normal;text-align:start;letter-spacing:0px;text-anchor:start"
       id="tspan651">3D Graphics and Games</tspan></text></g></svg>
