<svg clip-rule="evenodd" fill-rule="evenodd" stroke-linecap="square" stroke-miterlimit="10" version="1.1" viewBox="0 0 400 220" xml:space="preserve" xmlns="http://www.w3.org/2000/svg" xmlns:serif="http://www.serif.com/"><defs><filter id="filter712" x="-.015557" y="-.083949" width="1.0484" height="1.2612" color-interpolation-filters="sRGB"><feFlood flood-color="rgb(0,0,0)" flood-opacity=".50196" result="flood"/><feComposite in="flood" in2="SourceGraphic" operator="in" result="composite1"/><feGaussianBlur in="composite1" result="blur" stdDeviation="1.5"/><feOffset dx="4" dy="4" result="offset"/><feComposite in="SourceGraphic" in2="offset" result="composite2"/></filter></defs>
    <g serif:id="Layer 2">
        <path d="m-54.05-115.12 110.32 195.58h559.87v-195.58h-670.19z" fill="#94bf00" fill-rule="nonzero"/>
        <path d="m56.111 80.463 0.017 0.018-85.02 203.01h643.84v-203.02h-558.84z" fill="#069" fill-rule="nonzero"/>
        <g serif:id="Layer 6">
            <path d="m-48.879-82.255v325.48h37.387l70.871-162.73-91.804-162.75h-16.454z" fill="#f7931e" fill-rule="nonzero"/>
        </g>
        <g fill="none" stroke="#fff" stroke-width="2px" serif:id="Layer 8">
            <path d="m412.08 80h-352.16"/>
            <path d="m59.918 79.846-48.761-86.448" stroke-linecap="round"/>
            <path d="m-4.858 228.62 64.793-148.76-0.013-0.013" stroke-linecap="round" stroke-linejoin="round"/>
        </g>
    </g>
    <g opacity=".55">
        
            <path d="m122.35 79.992-9.898 22.374c-2.232 5.046-4.326 8.892-6.284 11.538-2.641 3.556-5.885 6.602-9.733 9.136-3.848 2.535-8.038 4.463-12.571 5.784-4.533 1.32-9.693 1.979-15.481 1.975-5.086-4e-3 -9.195-0.627-12.327-1.87-3.824-1.52-6.505-3.687-8.043-6.501-1.168-2.124-1.543-4.993-1.125-8.606 0.324-2.702 1.486-6.315 3.487-10.836l10.19-23.037 61.785 0.043zm-15.867 12.234-40.923-0.028-4.044 9.14c-1.512 3.419-2.407 5.887-2.685 7.404-0.372 1.985-0.244 3.633 0.385 4.944 0.629 1.31 2.144 2.38 4.546 3.209 2.401 0.829 5.99 1.245 10.767 1.249 4.776 3e-3 8.626-0.408 11.549-1.234 2.922-0.825 5.43-1.982 7.521-3.469 2.092-1.488 3.897-3.376 5.415-5.664 1.149-1.71 2.828-5.059 5.035-10.05l2.434-5.501z" fill="#fff" fill-rule="nonzero"/>
        
        
            <path d="m30.194 24.855 25.643 0.135c5.782 0.03 10.383 0.398 13.801 1.102 4.599 0.956 9.019 2.635 13.259 5.036 4.241 2.401 8.085 5.333 11.534 8.797 3.448 3.464 6.588 7.729 9.42 12.796 2.488 4.452 3.922 8.285 4.301 11.499 0.461 3.927-0.239 7.099-2.101 9.517-1.402 1.832-3.885 3.253-7.447 4.264-2.67 0.747-6.597 1.106-11.779 1.079l-26.401-0.139-30.23-54.086zm19.144 9.223 20.023 35.824 10.475 0.055c3.918 0.021 6.65-0.137 8.196-0.472 2.027-0.431 3.496-1.171 4.406-2.221 0.91-1.049 1.162-2.783 0.755-5.201-0.406-2.417-1.777-5.717-4.114-9.898s-4.605-7.394-6.804-9.637-4.502-3.996-6.91-5.26c-2.407-1.263-5.046-2.123-7.916-2.58-2.152-0.354-6.088-0.547-11.807-0.577l-6.304-0.033z" fill="#fff" fill-rule="nonzero"/>
        
        
            <path d="m33.093 139.58-13.072-23.054c-2.947-5.199-5.028-9.543-6.243-13.031-1.627-4.698-2.606-9.672-2.937-14.922s-0.05-10.467 0.844-15.65c0.894-5.182 2.563-10.573 5.007-16.173 2.148-4.92 4.361-8.521 6.64-10.803 2.784-2.787 5.585-4.077 8.403-3.87 2.13 0.149 4.5 1.513 7.108 4.093 1.947 1.942 4.241 5.242 6.882 9.901l13.459 23.736-26.091 59.773zm-2.738-22.725 17.281-39.591-5.34-9.417c-1.997-3.523-3.522-5.876-4.574-7.058-1.374-1.556-2.698-2.424-3.973-2.605-1.276-0.18-2.739 0.642-4.391 2.467s-3.487 5.048-5.504 9.669-3.323 8.594-3.92 11.92c-0.596 3.326-0.762 6.449-0.497 9.369 0.264 2.921 0.958 5.805 2.082 8.652 0.833 2.142 2.707 5.784 5.622 10.926l3.214 5.668z" fill="#fff" fill-rule="nonzero"/>
        
    </g>
    <g serif:id="Layer 12">
        <g opacity=".85">
            <path d="m151.33 28.913c0.212-0.618 0.314-0.79 0.465-1.126 0.141-0.292 0.282-0.562 0.427-0.832 0.289-0.523 0.591-1.016 0.901-1.489 0.63-0.935 1.279-1.82 1.979-2.633 1.389-1.64 2.913-3.071 4.506-4.354 3.237-2.519 6.609-4.518 10.331-5.972 3.647-1.431 7.312-2.337 10.972-3.033 3.659-0.7 7.323-1.139 10.983-1.41 7.304-0.566 14.66-0.333 21.828 0.424 7.181 0.699 14.332 1.459 21.476 2.423 0.189 0.025 0.321 0.2 0.296 0.391-0.025 0.189-0.197 0.322-0.384 0.299l-8e-3 -1e-3c-7.111-0.88-14.303-1.19-21.471-1.217-3.599-0.026-7.144 0.062-10.681 0.369-3.534 0.318-7.046 0.81-10.511 1.474-3.463 0.675-6.879 1.535-10.19 2.601-3.301 1.081-6.507 2.4-9.383 4.012-2.808 1.57-5.476 3.639-7.601 5.936-1.058 1.158-2.003 2.378-2.771 3.634-0.392 0.625-0.72 1.263-0.998 1.89-0.134 0.314-0.254 0.62-0.353 0.914l-0.12 0.408c-0.018 0.084-0.082 0.333-5e-3 0.146-0.782 2.697-3.584 4.244-6.259 3.456-2.676-0.788-4.21-3.613-3.429-6.31" fill="#fff" fill-rule="nonzero"/>
        </g>
        
        <g filter="url(#filter712)"><text x="255.207px" y="68.855px" fill="white" font-family="'Arial-BoldMT', 'Arial', sans-serif" font-size="58.667px" font-weight="700">{{year}}</text><g fill="#fff" fill-rule="nonzero">
            <rect x="151.42" y="38.433" width="8.049" height="30.422"/>
            <path d="m165.71 57.711 7.792-0.945c0.248 1.986 0.916 3.504 2.005 4.555 1.088 1.05 2.406 1.575 3.953 1.575 1.662 0 3.06-0.63 4.197-1.89 1.136-1.261 1.704-2.96 1.704-5.099 0-2.025-0.544-3.629-1.633-4.813-1.088-1.184-2.415-1.776-3.981-1.776-1.032 0-2.263 0.201-3.696 0.602l0.888-6.56c2.177 0.057 3.839-0.416 4.985-1.418 1.145-1.003 1.718-2.335 1.718-3.996 0-1.413-0.42-2.54-1.26-3.38-0.84-0.841-1.958-1.261-3.352-1.261-1.375 0-2.549 0.478-3.523 1.432-0.974 0.955-1.566 2.349-1.776 4.183l-7.419-1.261c0.515-2.54 1.293-4.569 2.334-6.087s2.492-2.712 4.354-3.581 3.949-1.303 6.26-1.303c3.953 0 7.123 1.26 9.51 3.781 1.967 2.063 2.95 4.393 2.95 6.99 0 3.686-2.014 6.627-6.044 8.823 2.406 0.515 4.331 1.671 5.772 3.466 1.442 1.795 2.163 3.963 2.163 6.502 0 3.686-1.346 6.828-4.039 9.425s-6.044 3.896-10.055 3.896c-3.8 0-6.951-1.094-9.453-3.28-2.501-2.187-3.953-5.047-4.354-8.58z"/>
            <path d="m200.37 26.86h15.497c3.495 0 6.159 0.267 7.992 0.802 2.464 0.726 4.574 2.015 6.331 3.867 1.757 1.853 3.094 4.12 4.01 6.803 0.917 2.684 1.375 5.992 1.375 9.926 0 3.457-0.429 6.436-1.289 8.938-1.05 3.055-2.549 5.528-4.497 7.419-1.471 1.432-3.457 2.55-5.959 3.352-1.871 0.592-4.373 0.888-7.505 0.888h-15.955v-41.995zm8.479 7.104v27.815h6.33c2.368 0 4.078-0.134 5.128-0.401 1.375-0.344 2.516-0.926 3.423-1.747 0.907-0.822 1.647-2.173 2.22-4.054s0.86-4.445 0.86-7.691c0-3.247-0.287-5.739-0.86-7.477s-1.375-3.093-2.406-4.067-2.339-1.633-3.924-1.977c-1.184-0.267-3.505-0.401-6.961-0.401h-3.81z"/>
        </g></g>
    </g>
</svg>
