<?xml version="1.0" encoding="UTF-8" standalone="no"?>
<svg
   clip-rule="evenodd"
   fill-rule="evenodd"
   stroke-linecap="square"
   stroke-miterlimit="10"
   version="1.1"
   viewBox="0 0 2560 1440"
   xml:space="preserve"
   id="svg59"
   sodipodi:docname="banner_youtube.svg"
   width="2560"
   height="1440"
   inkscape:version="1.2.1 (9c6d41e410, 2022-07-14)"
   inkscape:export-filename="..\img\banner_youtube.png"
   inkscape:export-xdpi="96"
   inkscape:export-ydpi="96"
   xmlns:inkscape="http://www.inkscape.org/namespaces/inkscape"
   xmlns:sodipodi="http://sodipodi.sourceforge.net/DTD/sodipodi-0.dtd"
   xmlns="http://www.w3.org/2000/svg"
   xmlns:svg="http://www.w3.org/2000/svg"
   xmlns:serif="http://www.serif.com/"><sodipodi:namedview
   id="namedview61"
   pagecolor="#505050"
   bordercolor="#ffffff"
   borderopacity="1"
   inkscape:showpageshadow="0"
   inkscape:pageopacity="0"
   inkscape:pagecheckerboard="1"
   inkscape:deskcolor="#505050"
   showgrid="false"
   inkscape:zoom="0.88137626"
   inkscape:cx="567.29461"
   inkscape:cy="655.79256"
   inkscape:window-width="1920"
   inkscape:window-height="1017"
   inkscape:window-x="-8"
   inkscape:window-y="-8"
   inkscape:window-maximized="1"
   inkscape:current-layer="g39"
   showguides="true"><sodipodi:guide
     position="-474.11811,720"
     orientation="0,1"
     id="guide453"
     inkscape:locked="false"
     inkscape:label=""
     inkscape:color="rgb(0,134,229)" /><sodipodi:guide
     position="-193.91386,932"
     orientation="0,1"
     id="guide455"
     inkscape:locked="false"
     inkscape:label=""
     inkscape:color="rgb(0,134,229)" /><sodipodi:guide
     position="-103.72137,508"
     orientation="0,1"
     id="guide457"
     inkscape:locked="false"
     inkscape:label=""
     inkscape:color="rgb(0,134,229)" /><sodipodi:guide
     position="507,1561.7599"
     orientation="-1,0"
     id="guide459"
     inkscape:locked="false"
     inkscape:label=""
     inkscape:color="rgb(0,134,229)" /><sodipodi:guide
     position="2053,1455.7837"
     orientation="-1,0"
     id="guide461"
     inkscape:locked="false"
     inkscape:label=""
     inkscape:color="rgb(0,134,229)" /><sodipodi:guide
     position="468.66744,1043.7391"
     orientation="-0.8660254,-0.5"
     id="guide587"
     inkscape:locked="false"
     inkscape:label=""
     inkscape:color="rgb(0,134,229)" /><sodipodi:guide
     position="533.97383,566.36485"
     orientation="-0.91354546,0.40673664"
     id="guide589"
     inkscape:locked="false"
     inkscape:label=""
     inkscape:color="rgb(0,134,229)" /><sodipodi:guide
     position="373.54052,772.02699"
     orientation="0,-1"
     id="guide591"
     inkscape:locked="false" /></sodipodi:namedview><defs
   id="defs13"><filter
     id="filter712"
     x="-0.008323703"
     y="-0.065386063"
     width="1.025896"
     height="1.2034233"
     color-interpolation-filters="sRGB"><feFlood
       flood-color="rgb(0,0,0)"
       flood-opacity=".50196"
       result="flood"
       id="feFlood2" /><feComposite
       in="flood"
       in2="SourceGraphic"
       operator="in"
       result="composite1"
       id="feComposite4" /><feGaussianBlur
       in="composite1"
       result="blur"
       stdDeviation="1.5"
       id="feGaussianBlur6" /><feOffset
       dx="4"
       dy="4"
       result="offset"
       id="feOffset8" /><feComposite
       in="SourceGraphic"
       in2="offset"
       result="composite2"
       id="feComposite10" /></filter></defs>
    <g
   serif:id="Layer 2"
   id="g31"
   transform="matrix(2.0102474,0,0,2.0102474,-371.17439,-778.80802)">
        <path
   d="M 264.15175,318.44693 495.81704,719.70297 2507.3072,718.89043 V 318.39574 Z"
   fill="#94bf00"
   fill-rule="nonzero"
   id="path15"
   sodipodi:nodetypes="ccccc"
   style="stroke-width:2.04773" />
        <path
   d="m 495.77694,719.66047 0.0401,0.0425 -274.5322,616.60943 2600.32856,-3.8009 V 719.67934 H 495.76985 Z"
   fill="#006699"
   fill-rule="nonzero"
   id="path17"
   sodipodi:nodetypes="ccccccc"
   style="stroke-width:2.3585" />
        <g
   serif:id="Layer 6"
   id="g21"
   transform="matrix(1.1199224,0,0,1.1199224,359.94936,629.69708)"
   style="display:inline">
            <path
   d="M -524.70371,-406.18156 V 567.15156 L -95.623641,567.62875 121.31883,80.367972 -159.28224,-405.64734 Z"
   fill="#f7931e"
   fill-rule="nonzero"
   id="path19"
   sodipodi:nodetypes="cccccc"
   style="stroke-width:2.99046" />
        </g>
        <g
   fill="none"
   stroke="#ffffff"
   stroke-width="2px"
   serif:id="Layer 8"
   id="g29"
   transform="translate(436.05401,639.34904)"
   style="display:inline">
            <path
   d="M 1195.6477,80.353933 59.763029,80.353932"
   id="path23"
   style="stroke-width:2.50395px"
   sodipodi:nodetypes="cc" />
            <path
   d="M 59.646401,80.059734 -138.35487,-262.79634"
   stroke-linecap="round"
   id="path25"
   sodipodi:nodetypes="cc" />
            <path
   d="M -139.82597,528.63816 59.763029,80.353932 v 0"
   stroke-linecap="round"
   stroke-linejoin="round"
   id="path27"
   sodipodi:nodetypes="ccc" />
        </g>
    </g>
    <g
   opacity="0.55"
   id="g39"
   transform="matrix(2.0102474,0,0,2.0102474,505.40207,506.44176)"
   style="display:inline">
        
            <path
   d="m 121.82768,80.850645 -9.898,22.373995 c -2.232,5.046 -4.326,8.892 -6.284,11.538 -2.641,3.556 -5.884999,6.602 -9.732999,9.136 -3.848,2.535 -8.038,4.463 -12.571,5.784 -4.533,1.32 -9.693,1.979 -15.481,1.975 -5.086,-0.004 -9.195,-0.627 -12.327,-1.87 -3.824,-1.52 -6.505,-3.687 -8.043,-6.501 -1.168,-2.124 -1.543,-4.993 -1.125,-8.606 0.324,-2.702 1.486,-6.315 3.487,-10.836 l 10.19,-23.036995 z m -15.867,12.234 -40.922999,-0.028 -4.044,9.139995 c -1.512,3.419 -2.407,5.887 -2.685,7.404 -0.372,1.985 -0.244,3.633 0.385,4.944 0.629,1.31 2.144,2.38 4.546,3.209 2.401,0.829 5.99,1.245 10.767,1.249 4.776,0.003 8.626,-0.408 11.549,-1.234 2.922,-0.825 5.43,-1.982 7.521,-3.469 2.092,-1.488 3.897,-3.376 5.415,-5.664 1.149,-1.71 2.827999,-5.059 5.034999,-10.049995 z"
   fill="#ffffff"
   fill-rule="nonzero"
   id="path33"
   inkscape:transform-center-x="-48.194329"
   inkscape:transform-center-y="51.192062" />
        
        
            <path
   d="m 28.984701,25.815488 25.644841,0.135 c 5.782408,0.03 10.388425,0.398 13.816021,1.102 4.61203,0.956 9.054916,2.635 13.327643,5.036 4.273728,2.401 8.157693,5.333 11.653909,8.797 3.495217,3.464 6.693355,7.729 9.594415,12.796 2.54869,4.452 4.03493,8.285 4.45774,11.499 0.51453,3.927 -0.14223,7.099 -1.97127,9.517 -1.37703,1.832 -3.84066,3.253 -7.388885,4.264 -2.659818,0.747 -6.581924,1.106 -11.764292,1.079 l -26.402895,-0.139 z m 19.269716,9.223 20.511304,35.824 10.475749,0.055 c 3.918287,0.021 6.648133,-0.137 8.189567,-0.472 2.021125,-0.431 3.480038,-1.171 4.375726,-2.221 0.895701,-1.049 1.124066,-2.783 0.684107,-5.201 -0.438945,-2.417 -1.854926,-5.717 -4.248916,-9.898 -2.39399,-4.181 -4.705785,-7.394 -6.935358,-9.637 -2.229574,-2.243 -4.556468,-3.996 -6.981698,-5.26 -2.424215,-1.263 -5.074937,-2.123 -7.951167,-2.58 -2.156825,-0.354 -6.095456,-0.547 -11.814864,-0.577 z"
   fill="#ffffff"
   fill-rule="nonzero"
   id="path35"
   inkscape:transform-center-x="-16.520688"
   inkscape:transform-center-y="-54.074515" />
        
        
            <path
   d="M 31.908063,141.98158 19.267335,119.81045 c -2.849742,-4.99996 -4.849233,-9.20387 -5.998494,-12.6107 -1.538451,-4.58934 -2.423222,-9.499389 -2.654315,-14.730156 -0.231093,-5.230768 0.149577,-10.470571 1.142991,-15.718475 0.993395,-5.246905 2.766272,-10.756206 5.318633,-16.527908 2.243202,-5.070902 4.526293,-8.826391 6.85027,-11.266532 2.838935,-2.980182 5.666328,-4.46353 8.482187,-4.450045 2.128523,0.0027 4.47403,1.204774 7.034499,3.607278 1.911215,1.809501 4.143752,4.954067 6.697595,9.434695 L 59.155672,80.37559 Z M 29.601683,119.42952 47.648769,78.624468 42.484932,69.56813 c -1.931096,-3.388124 -3.412199,-5.6379 -4.442333,-6.748398 -1.345206,-1.46262 -2.653501,-2.240216 -3.925866,-2.33372 -1.273387,-0.09243 -2.752999,0.830655 -4.440862,2.770403 -1.68786,1.939746 -3.5855,5.291005 -5.691916,10.053706 -2.106415,4.762702 -3.48902,8.82811 -4.14983,12.197361 -0.65981,3.369184 -0.885473,6.505682 -0.67599,9.409426 0.208466,2.904814 0.847912,5.743052 1.918339,8.514712 0.792685,2.08619 2.598431,5.60184 5.41724,10.54696 z"
   fill="#ffffff"
   fill-rule="nonzero"
   id="path37"
   inkscape:transform-center-x="48.504282"
   inkscape:transform-center-y="25.747043" />
        
    </g>
    <g
   serif:id="Layer 12"
   id="g57"
   transform="matrix(2.0102474,0,0,2.0102474,473.23811,506.44176)"
   style="display:inline">
        <g
   opacity="0.85"
   id="g43">
            <path
   d="m 151.33,28.913 c 0.212,-0.618 0.314,-0.79 0.465,-1.126 0.141,-0.292 0.282,-0.562 0.427,-0.832 0.289,-0.523 0.591,-1.016 0.901,-1.489 0.63,-0.935 1.279,-1.82 1.979,-2.633 1.389,-1.64 2.913,-3.071 4.506,-4.354 3.237,-2.519 6.609,-4.518 10.331,-5.972 3.647,-1.431 7.312,-2.337 10.972,-3.033 3.659,-0.7 7.323,-1.139 10.983,-1.41 7.304,-0.566 14.66,-0.333 21.828,0.424 7.181,0.699 14.332,1.459 21.476,2.423 0.189,0.025 0.321,0.2 0.296,0.391 -0.025,0.189 -0.197,0.322 -0.384,0.299 L 235.102,11.6 c -7.111,-0.88 -14.303,-1.19 -21.471,-1.217 -3.599,-0.026 -7.144,0.062 -10.681,0.369 -3.534,0.318 -7.046,0.81 -10.511,1.474 -3.463,0.675 -6.879,1.535 -10.19,2.601 -3.301,1.081 -6.507,2.4 -9.383,4.012 -2.808,1.57 -5.476,3.639 -7.601,5.936 -1.058,1.158 -2.003,2.378 -2.771,3.634 -0.392,0.625 -0.72,1.263 -0.998,1.89 -0.134,0.314 -0.254,0.62 -0.353,0.914 l -0.12,0.408 c -0.018,0.084 -0.082,0.333 -0.005,0.146 -0.782,2.697 -3.584,4.244 -6.259,3.456 -2.676,-0.788 -4.21,-3.613 -3.429,-6.31"
   fill="#ffffff"
   fill-rule="nonzero"
   id="path41" />
        </g>
        
        <g
   filter="url(#filter712)"
   id="g55"><text
     x="255.207"
     y="68.855003"
     fill="#ffffff"
     font-family="Arial-BoldMT, Arial, sans-serif"
     font-size="58.667px"
     font-weight="700"
     id="text45">Symposium</text><g
     fill="#ffffff"
     fill-rule="nonzero"
     id="g53">
            <rect
   x="151.42"
   y="38.432999"
   width="8.0489998"
   height="30.422001"
   id="rect47" />
            <path
   d="m 165.71,57.711 7.792,-0.945 c 0.248,1.986 0.916,3.504 2.005,4.555 1.088,1.05 2.406,1.575 3.953,1.575 1.662,0 3.06,-0.63 4.197,-1.89 1.136,-1.261 1.704,-2.96 1.704,-5.099 0,-2.025 -0.544,-3.629 -1.633,-4.813 -1.088,-1.184 -2.415,-1.776 -3.981,-1.776 -1.032,0 -2.263,0.201 -3.696,0.602 l 0.888,-6.56 c 2.177,0.057 3.839,-0.416 4.985,-1.418 1.145,-1.003 1.718,-2.335 1.718,-3.996 0,-1.413 -0.42,-2.54 -1.26,-3.38 -0.84,-0.841 -1.958,-1.261 -3.352,-1.261 -1.375,0 -2.549,0.478 -3.523,1.432 -0.974,0.955 -1.566,2.349 -1.776,4.183 l -7.419,-1.261 c 0.515,-2.54 1.293,-4.569 2.334,-6.087 1.041,-1.518 2.492,-2.712 4.354,-3.581 1.862,-0.869 3.949,-1.303 6.26,-1.303 3.953,0 7.123,1.26 9.51,3.781 1.967,2.063 2.95,4.393 2.95,6.99 0,3.686 -2.014,6.627 -6.044,8.823 2.406,0.515 4.331,1.671 5.772,3.466 1.442,1.795 2.163,3.963 2.163,6.502 0,3.686 -1.346,6.828 -4.039,9.425 -2.693,2.597 -6.044,3.896 -10.055,3.896 -3.8,0 -6.951,-1.094 -9.453,-3.28 -2.501,-2.187 -3.953,-5.047 -4.354,-8.58 z"
   id="path49" />
            <path
   d="m 200.37,26.86 h 15.497 c 3.495,0 6.159,0.267 7.992,0.802 2.464,0.726 4.574,2.015 6.331,3.867 1.757,1.853 3.094,4.12 4.01,6.803 0.917,2.684 1.375,5.992 1.375,9.926 0,3.457 -0.429,6.436 -1.289,8.938 -1.05,3.055 -2.549,5.528 -4.497,7.419 -1.471,1.432 -3.457,2.55 -5.959,3.352 -1.871,0.592 -4.373,0.888 -7.505,0.888 H 200.37 Z m 8.479,7.104 v 27.815 h 6.33 c 2.368,0 4.078,-0.134 5.128,-0.401 1.375,-0.344 2.516,-0.926 3.423,-1.747 0.907,-0.822 1.647,-2.173 2.22,-4.054 0.573,-1.881 0.86,-4.445 0.86,-7.691 0,-3.247 -0.287,-5.739 -0.86,-7.477 -0.573,-1.738 -1.375,-3.093 -2.406,-4.067 -1.031,-0.974 -2.339,-1.633 -3.924,-1.977 -1.184,-0.267 -3.505,-0.401 -6.961,-0.401 z"
   id="path51" />
        </g></g>
    </g>
<g
   id="g3044"
   transform="matrix(2.0102474,0,0,2.0102474,475.06289,511.34067)"
   style="display:inline"><text
     xml:space="preserve"
     id="text459"
     style="font-style:normal;font-variant:normal;font-weight:normal;font-stretch:normal;font-size:26.6667px;font-family:Arial-BoldMT, Arial, sans-serif;-inkscape-font-specification:'Arial-BoldMT, Arial, sans-serif';white-space:pre;shape-padding:0.5351;display:inline;fill:#ffffff;fill-opacity:1;stroke-linecap:square"
     x="151.10742"
     y="168.93616"><tspan
       style="text-align:start;letter-spacing:-0.25px;text-anchor:start"
       id="tspan2611">Interactive 3D Graphics and Games</tspan></text><text
     xml:space="preserve"
     id="text502"
     style="font-style:normal;font-variant:normal;font-weight:normal;font-stretch:normal;font-size:26.6667px;font-family:Arial-BoldMT, Arial, sans-serif;-inkscape-font-specification:'Arial-BoldMT, Arial, sans-serif';white-space:pre;shape-padding:0.5351;display:inline;fill:#ffffff;fill-opacity:1;stroke-linecap:square"
     x="151.10742"
     y="136.93616"><tspan
       style="text-align:start;letter-spacing:0.3px;text-anchor:start"
       id="tspan498">ACM SIGGRAPH Symposium on</tspan></text></g></svg>
