<?xml version="1.0" encoding="UTF-8" standalone="no"?>
<!-- Created with Inkscape (http://www.inkscape.org/) -->

<svg
   width="11in"
   height="8.5in"
   viewBox="0 0 279.4 215.9"
   version="1.1"
   id="svg1"
   inkscape:version="1.3.2 (091e20e, 2023-11-25, custom)"
   sodipodi:docname="certificate-background.svg"
   inkscape:export-filename="certificate-background.png"
   inkscape:export-xdpi="300"
   inkscape:export-ydpi="300"
   xmlns:inkscape="http://www.inkscape.org/namespaces/inkscape"
   xmlns:sodipodi="http://sodipodi.sourceforge.net/DTD/sodipodi-0.dtd"
   xmlns="http://www.w3.org/2000/svg"
   xmlns:svg="http://www.w3.org/2000/svg">
  <sodipodi:namedview
     id="namedview1"
     pagecolor="#ffffff"
     bordercolor="#eeeeee"
     borderopacity="1"
     inkscape:showpageshadow="0"
     inkscape:pageopacity="0"
     inkscape:pagecheckerboard="0"
     inkscape:deskcolor="#d1d1d1"
     inkscape:document-units="in"
     showguides="true"
     inkscape:zoom="1.0316077"
     inkscape:cx="555.44368"
     inkscape:cy="443.48252"
     inkscape:window-width="2131"
     inkscape:window-height="1370"
     inkscape:window-x="3861"
     inkscape:window-y="-1"
     inkscape:window-maximized="0"
     inkscape:current-layer="layer1">
    <sodipodi:guide
       position="12.7,237.18756"
       orientation="-1,0"
       id="guide1"
       inkscape:locked="false"
       inkscape:label=""
       inkscape:color="rgb(0,134,229)" />
    <sodipodi:guide
       position="-15.388601,203.2"
       orientation="0,1"
       id="guide2"
       inkscape:locked="false"
       inkscape:label=""
       inkscape:color="rgb(0,134,229)" />
    <sodipodi:guide
       position="-42.062176,12.7"
       orientation="0,1"
       id="guide3"
       inkscape:locked="false"
       inkscape:label=""
       inkscape:color="rgb(0,134,229)" />
    <sodipodi:guide
       position="266.7,230.00622"
       orientation="-1,0"
       id="guide4"
       inkscape:locked="false"
       inkscape:label=""
       inkscape:color="rgb(0,134,229)" />
    <sodipodi:guide
       position="40.64,228.72383"
       orientation="-1,0"
       id="guide5"
       inkscape:locked="false"
       inkscape:label=""
       inkscape:color="rgb(0,134,229)" />
    <sodipodi:guide
       position="-9.4896373,190.5"
       orientation="0,1"
       id="guide6"
       inkscape:locked="false"
       inkscape:label=""
       inkscape:color="rgb(0,134,229)" />
  </sodipodi:namedview>
  <defs
     id="defs1" />
  <g
     inkscape:label="Layer 1"
     inkscape:groupmode="layer"
     id="layer1">
    <g
       transform="matrix(0.05876885,0,0,0.05876885,249.17458,162.75946)"
       id="g3"
       style="clip-rule:evenodd;display:inline;fill:none;fill-rule:evenodd;stroke:#000000;stroke-width:6.0028;stroke-linejoin:round;stroke-miterlimit:2;stroke-dasharray:none;stroke-opacity:1">
      <path
         d="m 39.861,292.389 212.533,391.099 39.97,-23.174 c 1.77,-1.457 2.844,-3.972 2.844,-7.331 V 359.022 c 0,-7.786 -5.764,-17.689 -12.59,-21.63 l -97.98,-56.569 c -33.483,-19.331 -64.375,-24.665 -89.059,-17.913 -5.899,1.613 -11.443,3.917 -16.583,6.885 z"
         style="fill:none;fill-rule:nonzero;stroke:#000000;stroke-width:6.0028;stroke-dasharray:none;stroke-opacity:1"
         id="path1-8" />
      <g
         transform="matrix(-1.73201,-0.999976,0,2.30141,-0.804572,379.847)"
         id="g2"
         style="fill:none;stroke:#000000;stroke-width:3.00664;stroke-dasharray:none;stroke-opacity:1">
        <path
           d="m 0,0.383 c 0,38.551 -37.894,69.914 -84.473,69.914 h -56.57 c -2.24,0 -4.282,-0.923 -5.627,-2.341 -1.022,-1.077 -1.642,-2.439 -1.642,-3.899 V -63.674 c 0,-3.383 3.328,-6.24 7.269,-6.24 h 56.57 c 19.332,0 37.168,5.432 51.419,14.558 C -12.967,-42.493 0,-22.291 0,0.383"
           style="fill:none;fill-rule:nonzero;stroke:#000000;stroke-width:3.00664;stroke-dasharray:none;stroke-opacity:1"
           id="path2-79" />
      </g>
    </g>
    <g
       transform="matrix(0.05876885,0,0,0.05876885,-6.5600993,1.7673001)"
       id="g6"
       style="clip-rule:evenodd;display:inline;fill-rule:evenodd;stroke-width:6.00280211;stroke-linejoin:round;stroke-miterlimit:2;stroke-dasharray:none">
      <g
         transform="rotate(-120.00001,312.96802,334.40725)"
         id="g4"
         style="stroke-width:6.00280211;stroke-dasharray:none">
        <path
           d="m 39.861,292.389 212.533,391.099 39.97,-23.174 c 1.77,-1.457 2.844,-3.972 2.844,-7.331 V 359.022 c 0,-7.786 -5.764,-17.689 -12.59,-21.63 l -97.98,-56.569 c -33.483,-19.331 -64.375,-24.665 -89.059,-17.913 -5.899,1.613 -11.443,3.917 -16.583,6.885 z"
           style="fill:none;fill-rule:nonzero;stroke:#000000;stroke-width:6.00280211;stroke-dasharray:none;stroke-opacity:1"
           id="path3-2" />
      </g>
      <g
         transform="matrix(0,1.99995,1.99308,-1.1507,509.207,583.422)"
         id="g5"
         style="stroke-width:3.00664458;stroke-dasharray:none">
        <path
           d="m 0,0.383 c 0,38.551 -37.894,69.914 -84.473,69.914 h -56.57 c -2.24,0 -4.282,-0.923 -5.627,-2.341 -1.022,-1.077 -1.642,-2.439 -1.642,-3.899 V -63.674 c 0,-3.383 3.328,-6.24 7.269,-6.24 h 56.57 c 19.332,0 37.168,5.432 51.419,14.558 C -12.967,-42.493 0,-22.291 0,0.383"
           style="fill:none;fill-rule:nonzero;stroke:#000000;stroke-width:3.00664458;stroke-dasharray:none;stroke-opacity:1"
           id="path4-9" />
      </g>
    </g>
    <g
       transform="matrix(0.05876885,0,0,0.05876885,237.91062,12.40084)"
       id="g9"
       style="clip-rule:evenodd;display:inline;fill-rule:evenodd;stroke-width:6.0028;stroke-linejoin:round;stroke-miterlimit:2;stroke-dasharray:none">
      <g
         transform="rotate(120.00001,312.9682,334.40686)"
         id="g7"
         style="stroke-width:6.0028;stroke-dasharray:none">
        <path
           d="m 39.861,292.389 212.533,391.099 39.97,-23.174 c 1.77,-1.457 2.844,-3.972 2.844,-7.331 V 359.022 c 0,-7.786 -5.764,-17.689 -12.59,-21.63 l -97.98,-56.569 c -33.483,-19.331 -64.375,-24.665 -89.059,-17.913 -5.899,1.613 -11.443,3.917 -16.583,6.885 z"
           style="fill:none;fill-rule:nonzero;stroke:#000000;stroke-width:6.0028;stroke-dasharray:none;stroke-opacity:1"
           id="path6-2" />
      </g>
      <g
         transform="matrix(1.73201,-0.999976,-1.99308,-1.1507,430.502,39.9517)"
         id="g8"
         style="stroke-width:3.00665;stroke-dasharray:none">
        <path
           d="m 0,0.383 c 0,38.551 -37.894,69.914 -84.473,69.914 h -56.57 c -2.24,0 -4.282,-0.923 -5.627,-2.341 -1.022,-1.077 -1.642,-2.439 -1.642,-3.899 V -63.674 c 0,-3.383 3.328,-6.24 7.269,-6.24 h 56.57 c 19.332,0 37.168,5.432 51.419,14.558 C -12.967,-42.493 0,-22.291 0,0.383"
           style="fill:none;fill-rule:nonzero;stroke:#000000;stroke-width:3.00665;stroke-dasharray:none;stroke-opacity:1"
           id="path7" />
      </g>
    </g>
  </g>
</svg>
