<?xml version="1.0" encoding="UTF-8" standalone="no"?>
<!-- Created with Inkscape (http://www.inkscape.org/) -->

<svg
   xmlns:dc="http://purl.org/dc/elements/1.1/"
   xmlns:cc="http://creativecommons.org/ns#"
   xmlns:rdf="http://www.w3.org/1999/02/22-rdf-syntax-ns#"
   xmlns:svg="http://www.w3.org/2000/svg"
   xmlns="http://www.w3.org/2000/svg"
   xmlns:xlink="http://www.w3.org/1999/xlink"
   xmlns:sodipodi="http://sodipodi.sourceforge.net/DTD/sodipodi-0.dtd"
   xmlns:inkscape="http://www.inkscape.org/namespaces/inkscape"
   width="52.528999mm"
   height="49.152mm"
   viewBox="0 0 52.528998 49.152001"
   version="1.1"
   id="svg8"
   inkscape:version="0.92.4 (5da689c313, 2019-01-14)"
   sodipodi:docname="i3d-cube.svg">
  <defs
     id="defs2">
    <linearGradient
       inkscape:collect="always"
       id="linearGradient6590">
      <stop
         style="stop-color:#000000;stop-opacity:1;"
         offset="0"
         id="stop6586" />
      <stop
         style="stop-color:#ffffff;stop-opacity:0.92929292"
         offset="1"
         id="stop6588" />
    </linearGradient>
    <filter
       inkscape:label="Evanescent"
       inkscape:menu="Blurs"
       inkscape:menu-tooltip="Blur the contents of objects, preserving the outline and adding progressive transparency at edges"
       style="color-interpolation-filters:sRGB"
       id="filter4928">
      <feGaussianBlur
         result="result6"
         stdDeviation="3"
         in="SourceGraphic"
         id="feGaussianBlur4922" />
      <feColorMatrix
         values="1 0 0 0 0 0 1 0 0 0 0 0 1 0 0 0 0 0 1 0 "
         result="result7"
         in="SourceGraphic"
         id="feColorMatrix4924" />
      <feComposite
         operator="in"
         in="result6"
         in2="result7"
         id="feComposite4926" />
    </filter>
    <filter
       inkscape:label="Evanescent"
       inkscape:menu="Blurs"
       inkscape:menu-tooltip="Blur the contents of objects, preserving the outline and adding progressive transparency at edges"
       style="color-interpolation-filters:sRGB"
       id="filter4928-5">
      <feGaussianBlur
         result="result6"
         stdDeviation="3"
         in="SourceGraphic"
         id="feGaussianBlur4922-5" />
      <feColorMatrix
         values="1 0 0 0 0 0 1 0 0 0 0 0 1 0 0 0 0 0 1 0 "
         result="result7"
         in="SourceGraphic"
         id="feColorMatrix4924-6" />
      <feComposite
         operator="in"
         in="result6"
         in2="result7"
         id="feComposite4926-5" />
    </filter>
    <filter
       style="color-interpolation-filters:sRGB"
       inkscape:label="Feather"
       id="filter5010">
      <feGaussianBlur
         stdDeviation="0.5"
         result="blur"
         id="feGaussianBlur5002" />
      <feComposite
         in="SourceGraphic"
         in2="blur"
         operator="atop"
         result="composite1"
         id="feComposite5004" />
      <feComposite
         in2="composite1"
         operator="in"
         result="composite2"
         id="feComposite5006" />
      <feComposite
         in2="composite2"
         operator="in"
         result="composite3"
         id="feComposite5008" />
    </filter>
    <filter
       style="color-interpolation-filters:sRGB"
       inkscape:label="Feather"
       id="filter5075">
      <feGaussianBlur
         stdDeviation="0.5"
         result="blur"
         id="feGaussianBlur5067" />
      <feComposite
         in="SourceGraphic"
         in2="blur"
         operator="atop"
         result="composite1"
         id="feComposite5069" />
      <feComposite
         in2="composite1"
         operator="in"
         result="composite2"
         id="feComposite5071" />
      <feComposite
         in2="composite2"
         operator="in"
         result="composite3"
         id="feComposite5073" />
    </filter>
    <filter
       style="color-interpolation-filters:sRGB"
       inkscape:label="Feather"
       id="filter5115">
      <feGaussianBlur
         stdDeviation="0.5"
         result="blur"
         id="feGaussianBlur5107" />
      <feComposite
         in="SourceGraphic"
         in2="blur"
         operator="atop"
         result="composite1"
         id="feComposite5109" />
      <feComposite
         in2="composite1"
         operator="in"
         result="composite2"
         id="feComposite5111" />
      <feComposite
         in2="composite2"
         operator="in"
         result="composite3"
         id="feComposite5113" />
    </filter>
    <radialGradient
       inkscape:collect="always"
       xlink:href="#linearGradient6590"
       id="radialGradient6592"
       cx="35.423454"
       cy="52.696198"
       fx="35.423454"
       fy="52.696198"
       r="14.165258"
       gradientTransform="matrix(1.6425573,0.03202866,-0.03301895,1.6933428,-31.062802,182.16365)"
       gradientUnits="userSpaceOnUse" />
    <radialGradient
       inkscape:collect="always"
       xlink:href="#linearGradient6590"
       id="radialGradient6608"
       cx="35.624184"
       cy="60.154491"
       fx="35.624184"
       fy="60.154491"
       r="14.467468"
       gradientTransform="matrix(2.0622043,-0.01297292,0.00923691,1.4683197,-48.436979,183.65247)"
       gradientUnits="userSpaceOnUse" />
    <radialGradient
       inkscape:collect="always"
       xlink:href="#linearGradient6590"
       id="radialGradient6618"
       gradientUnits="userSpaceOnUse"
       gradientTransform="matrix(-1.9609933,-0.96813885,1.2274516,-2.5329744,19.980962,454.82311)"
       cx="34.580833"
       cy="58.970837"
       fx="34.580833"
       fy="58.970837"
       r="8.153966" />
    <filter
       style="color-interpolation-filters:sRGB"
       inkscape:label="Feather"
       id="filter6718">
      <feGaussianBlur
         stdDeviation="0.5"
         result="blur"
         id="feGaussianBlur6710" />
      <feComposite
         in="SourceGraphic"
         in2="blur"
         operator="atop"
         result="composite1"
         id="feComposite6712" />
      <feComposite
         in2="composite1"
         operator="in"
         result="composite2"
         id="feComposite6714" />
      <feComposite
         in2="composite2"
         operator="in"
         result="composite3"
         id="feComposite6716" />
    </filter>
  </defs>
  <sodipodi:namedview
     id="base"
     pagecolor="#ffffff"
     bordercolor="#666666"
     borderopacity="1.0"
     inkscape:pageopacity="0.0"
     inkscape:pageshadow="2"
     inkscape:zoom="2.8"
     inkscape:cx="96.290058"
     inkscape:cy="112.43172"
     inkscape:document-units="mm"
     inkscape:current-layer="layer9"
     showgrid="false"
     showguides="true"
     inkscape:guide-bbox="true"
     inkscape:window-width="1920"
     inkscape:window-height="1017"
     inkscape:window-x="-8"
     inkscape:window-y="-8"
     inkscape:window-maximized="1"
     inkscape:object-nodes="true"
     inkscape:snap-nodes="true"
     inkscape:snap-others="true"
     inkscape:snap-global="true"
     inkscape:snap-bbox="true"
     inkscape:bbox-nodes="true"
     inkscape:snap-bbox-edge-midpoints="true"
     inkscape:snap-bbox-midpoints="true"
     inkscape:bbox-paths="true"
     inkscape:object-paths="true"
     inkscape:snap-intersection-paths="true"
     inkscape:snap-smooth-nodes="true"
     inkscape:snap-center="true"
     inkscape:snap-object-midpoints="true"
     inkscape:snap-midpoints="true" />
  <metadata
     id="metadata5">
    <rdf:RDF>
      <cc:Work
         rdf:about="">
        <dc:format>image/svg+xml</dc:format>
        <dc:type
           rdf:resource="http://purl.org/dc/dcmitype/StillImage" />
        <dc:title></dc:title>
      </cc:Work>
    </rdf:RDF>
  </metadata>
  <g
     inkscape:groupmode="layer"
     id="layer9"
     inkscape:label="Background Black"
     transform="translate(0,-27.932)"
     sodipodi:insensitive="true">
    <rect
       style="display:inline;opacity:1;vector-effect:none;fill:#000000;fill-opacity:0.89393939;stroke:none;stroke-width:0.15309089;stroke-linecap:round;stroke-linejoin:round;stroke-miterlimit:4;stroke-dasharray:none;stroke-dashoffset:0;stroke-opacity:0.92929293"
       id="rect9422"
       width="52.528999"
       height="49.152"
       x="-5.5511151e-17"
       y="27.931999" />
  </g>
  <g
     inkscape:groupmode="layer"
     id="layer2"
     inkscape:label="Background White"
     transform="translate(0,-27.932)">
    <path
       style="fill:#ffffff;stroke:none;stroke-width:0.26458332px;stroke-linecap:butt;stroke-linejoin:miter;stroke-opacity:1"
       d="M 0,53.185067 10.987941,27.932483 H 38.272018 L 52.528852,52.04616 41.634377,77.083998 H 13.959884 Z"
       id="path1940"
       inkscape:connector-curvature="0" />
  </g>
  <g
     inkscape:label="Background"
     inkscape:groupmode="layer"
     id="layer1"
     style="display:inline"
     transform="translate(0,-247.848)">
    <path
       style="fill:#94bf00;fill-opacity:0.98989898;stroke:none;stroke-width:0.26458332px;stroke-linecap:butt;stroke-linejoin:miter;stroke-opacity:0.98039216"
       d="m 37.919113,248.61074 13.620109,23.03673 -26.038823,-0.004 -13.251702,-23.02666 z"
       id="path4622"
       inkscape:connector-curvature="0"
       sodipodi:nodetypes="ccccc" />
    <path
       style="fill:#006699;fill-opacity:1;stroke:none;stroke-width:0.26458332px;stroke-linecap:butt;stroke-linejoin:miter;stroke-opacity:0.98039216"
       d="m 14.880784,296.23905 h 1.1e-5 L 25.34318,272.40711 H 51.531731 L 41.16197,296.23905 Z"
       id="path4628"
       inkscape:connector-curvature="0"
       sodipodi:nodetypes="cccccc" />
    <path
       style="fill:#f7931e;fill-opacity:1;stroke:none;stroke-width:0.26458332px;stroke-linecap:butt;stroke-linejoin:miter;stroke-opacity:1"
       d="M 14.294559,295.93199 24.68724,271.85497 11.459816,248.61074 0.8035615,273.10109 Z"
       id="path4634"
       inkscape:connector-curvature="0"
       sodipodi:nodetypes="ccccc" />
  </g>
  <g
     inkscape:groupmode="layer"
     id="layer5"
     inkscape:label="DLayer"
     style="display:inline"
     transform="translate(0,-247.848)">
    <path
       style="fill:#ffffff;fill-opacity:0.50196078;stroke:none;stroke-width:0.26297337px;stroke-linecap:butt;stroke-linejoin:miter;stroke-opacity:1"
       d="m 25.34323,272.5323 c 0,0 -2.973859,6.63942 -3.296957,7.47138 -0.323096,0.83196 -1.447901,3.61757 -1.392796,5.51178 0.02995,1.02951 0.383506,2.07351 0.929854,2.94659 0.392504,0.62724 0.990717,1.12408 1.611763,1.52632 0.653182,0.42304 1.395962,0.73341 2.158174,0.8904 2.154494,0.44375 4.43325,0.48704 6.598417,0.0987 2.147351,-0.38515 4.257154,-1.20193 6.102176,-2.36612 2.045507,-1.29069 3.585361,-2.4561 5.279927,-4.97718 2.291601,-3.40931 4.127121,-8.21436 5.320161,-11.10323 z m 2.594673,4.9103 13.394828,0.0703 c -0.590989,1.44417 -1.672675,3.33555 -2.805803,4.80953 -1.133128,1.47397 -2.067012,2.03959 -3.33111,2.71208 -1.019013,0.54211 -2.173433,0.82565 -3.313633,1.00513 -0.957662,0.15076 -1.948299,0.18949 -2.907903,0.0517 -0.532998,-0.0766 -1.068896,-0.22459 -1.541775,-0.48214 -0.352206,-0.19183 -0.687335,-0.44656 -0.924587,-0.76991 -0.277518,-0.37823 -0.474649,-0.83663 -0.534516,-1.30191 -0.101391,-0.78797 0.0089,-1.32818 0.317571,-2.36213 0.308711,-1.03396 1.646928,-3.73259 1.646928,-3.73259 z"
       id="path4640-0"
       inkscape:connector-curvature="0"
       sodipodi:nodetypes="ccaaaaaascccczaaaaaazc" />
    <path
       style="fill:#ffffff;fill-opacity:0.50196078;stroke:none;stroke-width:0.26458332px;stroke-linecap:butt;stroke-linejoin:miter;stroke-opacity:1"
       d="m 17.967452,250.70366 c -1.619831,-0.002 -3.113517,0.034 -4.321701,0.0615 l 11.937256,20.75119 c 0,0 7.524613,0.0394 8.441862,0 0.91725,-0.0394 3.967255,-0.10393 5.671267,-0.98601 0.883672,-0.45743 1.641857,-1.23105 2.115469,-2.10615 0.31851,-0.58852 0.386942,-1.29685 0.407741,-1.96571 0.02416,-0.77682 -0.08606,-1.57035 -0.330801,-2.30801 -0.67774,-2.04276 -1.72345,-4.00554 -3.086134,-5.67147 -1.796196,-2.1959 -4.039238,-4.09455 -6.520823,-5.46933 -1.809374,-1.00239 -3.86723,-1.54543 -5.902248,-1.91597 -2.76157,-0.50283 -5.712172,-0.38594 -8.411888,-0.39003 z m 4.986259,4.31395 c 1.313836,0.008 2.931887,0.0474 4.335065,0.41986 1.417857,0.37642 2.78238,1.00743 4.014044,1.8043 1.104852,0.71483 2.116706,1.60435 2.952104,2.6211 0.737074,0.89708 1.355329,1.91679 1.763454,3.00374 0.187433,0.49919 0.308657,1.0385 0.298193,1.57161 -0.008,0.40543 -0.07452,0.83204 -0.273502,1.18538 -0.229262,0.40711 -0.599377,0.74484 -1.004518,0.97757 -0.649464,0.37307 -1.707628,0.57919 -2.164958,0.60152 -0.45733,0.0223 -4.122304,0.0236 -4.122304,0.0236 l -7.05745,-12.19475 c 0.401952,-0.0104 0.821925,-0.0165 1.259872,-0.0139 z"
       id="path4640"
       inkscape:connector-curvature="0"
       sodipodi:nodetypes="scccaaaaaaascaaaaaaaccccc" />
    <path
       style="fill:#ffffff;fill-opacity:0.50196078;stroke:none;stroke-width:0.23975535px;stroke-linecap:butt;stroke-linejoin:miter;stroke-opacity:1"
       d="m 16.145771,260.08166 c -0.495356,-0.0752 -1.014321,-0.0353 -1.500272,0.0873 -0.501677,0.12666 -0.991242,0.3481 -1.408492,0.65646 -0.786707,0.58139 -1.455482,1.34617 -1.971056,2.18147 -1.026467,1.66304 -1.6828356,3.56374 -2.1325976,5.46978 -0.5142624,2.1794 -0.738177,4.45523 -0.6164731,6.69221 0.1362433,2.50424 0.4102507,4.53241 1.4987007,7.3704 1.471937,3.83788 3.906674,7.94569 5.444076,10.51275 l 9.07949,-21.08667 c 0,0 -4.636641,-8.2339 -5.087332,-8.95444 -0.450691,-0.72053 -1.092045,-1.80637 -1.92036,-2.40915 -0.399743,-0.29091 -0.898358,-0.44622 -1.385684,-0.52017 z m -0.125636,6.35721 c 0.297079,-0.0178 0.603282,0.10119 0.853863,0.26323 0.530245,0.3429 1.029932,1.06621 1.256506,1.42399 0.226575,0.35777 1.920215,3.41319 1.920218,3.41319 l -5.288345,12.12197 c -0.753959,-1.32891 -1.174349,-2.24061 -1.883972,-4.19653 -0.524743,-1.44632 -0.777757,-2.73203 -0.844473,-4.13906 -0.06477,-1.36604 0.0832,-2.75868 0.43592,-4.07913 0.283042,-1.0596 0.765258,-2.06805 1.32785,-3.00714 0.27129,-0.45285 0.560177,-0.92206 0.974816,-1.24593 0.359376,-0.28071 0.793998,-0.52744 1.247617,-0.55459 z"
       id="path4640-02"
       inkscape:connector-curvature="0"
       sodipodi:nodetypes="aaaaaasccsaaaacccsaaaaa" />
  </g>
  <g
     inkscape:groupmode="layer"
     id="layer4"
     inkscape:label="Feather"
     style="display:inline"
     transform="translate(0,-247.848)">
    <path
       style="fill:#006699;fill-opacity:1;stroke:none;stroke-width:0.26297337px;stroke-linecap:butt;stroke-linejoin:miter;stroke-opacity:1;filter:url(#filter5010)"
       d="m 25.34323,272.5323 c 0,0 -2.973859,6.63942 -3.296957,7.47138 -0.323096,0.83196 -1.447901,3.61757 -1.392796,5.51178 0.02995,1.02951 0.383506,2.07351 0.929854,2.94659 0.392504,0.62724 0.990717,1.12408 1.611763,1.52632 0.653182,0.42304 1.395962,0.73341 2.158174,0.8904 2.154494,0.44375 4.43325,0.48704 6.598417,0.0987 2.147351,-0.38515 4.257154,-1.20193 6.102176,-2.36612 2.045507,-1.29069 3.585361,-2.4561 5.279927,-4.97718 2.291601,-3.40931 4.127121,-8.21436 5.320161,-11.10323 z m 2.594673,4.9103 13.394828,0.0703 c -0.590989,1.44417 -1.672675,3.33555 -2.805803,4.80953 -1.133128,1.47397 -2.067012,2.03959 -3.33111,2.71208 -1.019013,0.54211 -2.173433,0.82565 -3.313633,1.00513 -0.957662,0.15076 -1.948299,0.18949 -2.907903,0.0517 -0.532998,-0.0766 -1.068896,-0.22459 -1.541775,-0.48214 -0.352206,-0.19183 -0.687335,-0.44656 -0.924587,-0.76991 -0.277518,-0.37823 -0.474649,-0.83663 -0.534516,-1.30191 -0.101391,-0.78797 0.0089,-1.32818 0.317571,-2.36213 0.308711,-1.03396 1.646928,-3.73259 1.646928,-3.73259 z"
       id="path4640-0-0"
       inkscape:connector-curvature="0"
       sodipodi:nodetypes="ccaaaaaascccczaaaaaazc" />
    <path
       style="fill:#94be00;fill-opacity:1;stroke:none;stroke-width:0.26458332px;stroke-linecap:butt;stroke-linejoin:miter;stroke-opacity:1;filter:url(#filter6718)"
       d="m 17.967452,250.70366 c -1.619831,-0.002 -3.113517,0.034 -4.321701,0.0615 l 11.937256,20.75119 c 0,0 7.524613,0.0394 8.441862,0 0.91725,-0.0394 3.967255,-0.10393 5.671267,-0.98601 0.883672,-0.45743 1.641857,-1.23105 2.115469,-2.10615 0.31851,-0.58852 0.386942,-1.29685 0.407741,-1.96571 0.02416,-0.77682 -0.08606,-1.57035 -0.330801,-2.30801 -0.67774,-2.04276 -1.72345,-4.00554 -3.086134,-5.67147 -1.796196,-2.1959 -4.039238,-4.09455 -6.520823,-5.46933 -1.809374,-1.00239 -3.86723,-1.54543 -5.902248,-1.91597 -2.76157,-0.50283 -5.712172,-0.38594 -8.411888,-0.39003 z m 4.986259,4.31395 c 1.313836,0.008 2.931887,0.0474 4.335065,0.41986 1.417857,0.37642 2.78238,1.00743 4.014044,1.8043 1.104852,0.71483 2.116706,1.60435 2.952104,2.6211 0.737074,0.89708 1.355329,1.91679 1.763454,3.00374 0.187433,0.49919 0.308657,1.0385 0.298193,1.57161 -0.008,0.40543 -0.07452,0.83204 -0.273502,1.18538 -0.229262,0.40711 -0.599377,0.74484 -1.004518,0.97757 -0.649464,0.37307 -1.707628,0.57919 -2.164958,0.60152 -0.45733,0.0223 -4.122304,0.0236 -4.122304,0.0236 l -7.05745,-12.19475 c 0.401952,-0.0104 0.821925,-0.0165 1.259872,-0.0139 z"
       id="path4640-3"
       inkscape:connector-curvature="0"
       sodipodi:nodetypes="scccaaaaaaascaaaaaaaccccc" />
    <path
       style="fill:#f7931e;fill-opacity:1;stroke:none;stroke-width:0.2386515px;stroke-linecap:butt;stroke-linejoin:miter;stroke-opacity:1;filter:url(#filter5115)"
       d="m 16.145931,260.08072 c -0.495377,-0.0745 -1.014364,-0.035 -1.500335,0.0865 -0.501698,0.12549 -0.991284,0.34489 -1.408552,0.6504 -0.78674,0.57602 -1.455543,1.33375 -1.971139,2.16135 -1.02651,1.64769 -1.6829057,3.53085 -2.1326867,5.41931 -0.514284,2.15929 -0.738208,4.41411 -0.616499,6.63046 0.136249,2.48113 0.410268,4.49059 1.4987637,7.30239 1.471999,3.80247 3.906838,7.87238 5.444305,10.41575 l 9.079872,-20.89211 c 0,0 -4.636836,-8.15792 -5.087546,-8.87181 -0.45071,-0.71389 -1.092091,-1.78971 -1.920441,-2.38693 -0.399759,-0.28822 -0.898395,-0.4421 -1.385742,-0.51537 z m -0.125641,6.29856 c 0.297091,-0.0176 0.603307,0.10025 0.853899,0.2608 0.530267,0.33973 1.029975,1.05637 1.256559,1.41084 0.226584,0.35448 1.920295,3.38171 1.920298,3.38171 l -5.288567,12.01012 c -0.753991,-1.31665 -1.174399,-2.21994 -1.884052,-4.1578 -0.524765,-1.43299 -0.77779,-2.70683 -0.844508,-4.10088 -0.06477,-1.35343 0.0832,-2.73323 0.435938,-4.04149 0.283054,-1.04982 0.76529,-2.04897 1.327906,-2.9794 0.271302,-0.44867 0.560201,-0.91355 0.974857,-1.23443 0.359391,-0.27812 0.794032,-0.52258 1.24767,-0.54947 z"
       id="path4640-02-3"
       inkscape:connector-curvature="0"
       sodipodi:nodetypes="aaaaaasccsaaaacccsaaaaa" />
  </g>
  <g
     inkscape:groupmode="layer"
     id="layer6"
     inkscape:label="Stroke"
     style="display:inline"
     transform="translate(0,-247.848)">
    <path
       style="display:inline;fill:none;fill-opacity:0.50196078;stroke:url(#radialGradient6592);stroke-width:0.26297337px;stroke-linecap:butt;stroke-linejoin:miter;stroke-opacity:1"
       d="m 25.34323,272.5323 c 0,0 -2.973859,6.63942 -3.296957,7.47138 -0.323096,0.83196 -1.447901,3.61757 -1.392796,5.51178 0.02995,1.02951 0.383506,2.07351 0.929854,2.9466 0.392504,0.62723 0.990717,1.12407 1.611763,1.52631 0.653182,0.42304 1.395962,0.73341 2.158174,0.8904 2.154494,0.44375 4.43325,0.48704 6.598417,0.0987 2.147351,-0.38515 4.257155,-1.20193 6.102176,-2.36612 2.045507,-1.29069 3.585361,-2.4561 5.279927,-4.97718 2.291602,-3.40931 4.127122,-8.21436 5.32016,-11.10323 z m 2.594673,4.9103 13.394828,0.0703 c -0.590989,1.44417 -1.672674,3.33555 -2.805803,4.80953 -1.133128,1.47397 -2.067012,2.03958 -3.331109,2.71208 -1.019014,0.54211 -2.173434,0.82564 -3.313634,1.00513 -0.957662,0.15076 -1.948299,0.18949 -2.907903,0.0517 -0.532998,-0.0766 -1.068896,-0.22459 -1.541775,-0.48215 -0.352206,-0.19182 -0.687335,-0.44655 -0.924587,-0.7699 -0.277518,-0.37823 -0.474649,-0.83663 -0.534516,-1.30191 -0.101391,-0.78797 0.0089,-1.32818 0.317571,-2.36213 0.308711,-1.03396 1.646928,-3.73259 1.646928,-3.73259 z"
       id="path4640-0-5"
       inkscape:connector-curvature="0"
       sodipodi:nodetypes="ccaaaaaascccczaaaaaazc" />
    <path
       style="display:inline;fill:none;fill-opacity:0.50196078;stroke:url(#radialGradient6608);stroke-width:0.26458332px;stroke-linecap:butt;stroke-linejoin:miter;stroke-opacity:1"
       d="m 17.967452,250.70366 c -1.619831,-0.002 -3.113517,0.034 -4.321701,0.0615 l 11.937256,20.75119 c 0,0 7.524613,0.0394 8.441862,0 0.91725,-0.0394 3.967254,-0.10393 5.671266,-0.98601 0.883674,-0.45743 1.641859,-1.23105 2.115471,-2.10615 0.318508,-0.58852 0.38694,-1.29685 0.407739,-1.96571 0.02416,-0.77682 -0.08606,-1.57035 -0.330801,-2.30801 -0.677738,-2.04276 -1.723448,-4.00554 -3.086134,-5.67147 -1.796196,-2.1959 -4.039237,-4.09455 -6.520822,-5.46933 -1.809374,-1.00239 -3.86723,-1.54543 -5.902248,-1.91597 -2.76157,-0.50283 -5.712172,-0.38594 -8.411888,-0.39003 z m 4.986259,4.31395 c 1.313836,0.008 2.931887,0.0474 4.335065,0.41986 1.417857,0.37642 2.78238,1.00743 4.014044,1.8043 1.104852,0.71483 2.116706,1.60435 2.952104,2.6211 0.737073,0.89708 1.35533,1.91679 1.763453,3.00374 0.187433,0.49919 0.308657,1.0385 0.298193,1.57161 -0.008,0.40543 -0.07452,0.83204 -0.2735,1.18538 -0.229264,0.40711 -0.599379,0.74484 -1.00452,0.97757 -0.649463,0.37307 -1.707627,0.57919 -2.164957,0.60152 -0.45733,0.0223 -4.122304,0.0236 -4.122304,0.0236 l -7.05745,-12.19475 c 0.401952,-0.0104 0.821925,-0.0165 1.259872,-0.0139 z"
       id="path4640-33"
       inkscape:connector-curvature="0"
       sodipodi:nodetypes="scccaaaaaaascaaaaaaaccccc" />
    <path
       style="display:inline;fill:none;fill-opacity:0.50196078;stroke:url(#radialGradient6618);stroke-width:0.23975535px;stroke-linecap:butt;stroke-linejoin:miter;stroke-opacity:1"
       d="m 16.158652,260.08868 c -0.495356,-0.0752 -1.014321,-0.0353 -1.500271,0.0873 -0.501677,0.12666 -0.991243,0.3481 -1.408493,0.65646 -0.786707,0.58138 -1.455482,1.34617 -1.971056,2.18147 -1.026467,1.66303 -1.6828355,3.56374 -2.1325976,5.46978 -0.5142623,2.1794 -0.7381769,4.45522 -0.616473,6.69221 0.1362432,2.50424 0.4102507,4.5324 1.4987006,7.37039 1.471937,3.83788 3.906674,7.94569 5.444076,10.51275 l 9.07949,-21.08667 c 0,0 -4.636641,-8.2339 -5.087332,-8.95444 -0.450691,-0.72052 -1.092045,-1.80637 -1.92036,-2.40915 -0.399742,-0.2909 -0.898357,-0.44622 -1.385684,-0.52017 z m -0.125635,6.35722 c 0.297078,-0.0178 0.603281,0.10118 0.853863,0.26323 0.530244,0.34289 1.029931,1.06621 1.256506,1.42398 0.226574,0.35777 1.920214,3.4132 1.920217,3.4132 l -5.288344,12.12197 c -0.75396,-1.32892 -1.17435,-2.24062 -1.883973,-4.19653 -0.524743,-1.44633 -0.777757,-2.73203 -0.844473,-4.13907 -0.06477,-1.36603 0.0832,-2.75868 0.43592,-4.07912 0.283042,-1.0596 0.765258,-2.06806 1.32785,-3.00714 0.271291,-0.45285 0.560178,-0.92206 0.974816,-1.24593 0.359376,-0.28071 0.793999,-0.52745 1.247618,-0.55459 z"
       id="path4640-02-6"
       inkscape:connector-curvature="0"
       sodipodi:nodetypes="aaaaaasccsaaaacccsaaaaa" />
  </g>
  <g
     inkscape:groupmode="layer"
     id="layer8"
     inkscape:label="LogoShadow"
     style="display:inline"
     transform="translate(0,-247.848)" />
  <g
     inkscape:groupmode="layer"
     id="layer7"
     inkscape:label="Logo"
     style="display:inline"
     transform="translate(0,-247.848)" />
</svg>
