<?xml version="1.0" encoding="UTF-8" standalone="no"?>
<svg
   width="100%"
   height="100%"
   viewBox="0 0 600 600"
   version="1.1"
   xml:space="preserve"
   style="fill-rule:evenodd;clip-rule:evenodd;stroke-linejoin:round;stroke-miterlimit:2;"
   id="svg37"
   sodipodi:docname="logo-black.svg"
   inkscape:version="1.3.2 (091e20e, 2023-11-25, custom)"
   xmlns:inkscape="http://www.inkscape.org/namespaces/inkscape"
   xmlns:sodipodi="http://sodipodi.sourceforge.net/DTD/sodipodi-0.dtd"
   xmlns="http://www.w3.org/2000/svg"
   xmlns:svg="http://www.w3.org/2000/svg"><sodipodi:namedview
   id="namedview37"
   pagecolor="#505050"
   bordercolor="#eeeeee"
   borderopacity="1"
   inkscape:showpageshadow="0"
   inkscape:pageopacity="0"
   inkscape:pagecheckerboard="0"
   inkscape:deskcolor="#d1d1d1"
   inkscape:zoom="1.3647161"
   inkscape:cx="312.51921"
   inkscape:cy="341.82934"
   inkscape:window-width="2131"
   inkscape:window-height="1370"
   inkscape:window-x="3861"
   inkscape:window-y="-1"
   inkscape:window-maximized="0"
   inkscape:current-layer="svg37" />
    <g
   transform="matrix(0.88631,0,0,0.88631,12.6097,-6.54482)"
   id="g3"
   style="fill:#000000;fill-opacity:1">
        <path
   d="M39.861,292.389L252.394,683.488L292.364,660.314C294.134,658.857 295.208,656.342 295.208,652.983L295.208,359.022C295.208,351.236 289.444,341.333 282.618,337.392L184.638,280.823C151.155,261.492 120.263,256.158 95.579,262.91C89.68,264.523 84.136,266.827 78.996,269.795L39.861,292.389Z"
   style="fill:#000000;fill-rule:nonzero;fill-opacity:1"
   id="path1" />
        <g
   transform="matrix(-1.73201,-0.999976,-1.0719e-16,2.30141,-0.804572,379.847)"
   id="g2"
   style="fill:#000000;fill-opacity:1">
            <path
   d="M0,0.383C0,38.934 -37.894,70.297 -84.473,70.297L-141.043,70.297C-143.283,70.297 -145.325,69.374 -146.67,67.956C-147.692,66.879 -148.312,65.517 -148.312,64.057L-148.312,-63.674C-148.312,-67.057 -144.984,-69.914 -141.043,-69.914L-84.473,-69.914C-65.141,-69.914 -47.305,-64.482 -33.054,-55.356C-12.967,-42.493 0,-22.291 0,0.383"
   style="fill:#000000;fill-rule:nonzero;fill-opacity:1"
   id="path2" />
        </g>
    </g>
    <g
   transform="matrix(0.88631,0,0,0.88631,12.6097,-6.54482)"
   id="g6"
   style="fill:#000000;fill-opacity:1">
        <g
   transform="matrix(-0.5,-0.866025,0.866025,-0.5,179.847,772.649)"
   id="g4"
   style="fill:#000000;fill-opacity:1">
            <path
   d="M39.861,292.389L252.394,683.488L292.364,660.314C294.134,658.857 295.208,656.342 295.208,652.983L295.208,359.022C295.208,351.236 289.444,341.333 282.618,337.392L184.638,280.823C151.155,261.492 120.263,256.158 95.579,262.91C89.68,264.523 84.136,266.827 78.996,269.795L39.861,292.389Z"
   style="fill:#000000;fill-rule:nonzero;fill-opacity:1"
   id="path3" />
        </g>
        <g
   transform="matrix(-4.44089e-16,1.99995,1.99308,-1.1507,509.207,583.422)"
   id="g5"
   style="fill:#000000;fill-opacity:1">
            <path
   d="M0,0.383C0,38.934 -37.894,70.297 -84.473,70.297L-141.043,70.297C-143.283,70.297 -145.325,69.374 -146.67,67.956C-147.692,66.879 -148.312,65.517 -148.312,64.057L-148.312,-63.674C-148.312,-67.057 -144.984,-69.914 -141.043,-69.914L-84.473,-69.914C-65.141,-69.914 -47.305,-64.482 -33.054,-55.356C-12.967,-42.493 0,-22.291 0,0.383"
   style="fill:#000000;fill-rule:nonzero;fill-opacity:1"
   id="path4" />
        </g>
    </g>
    <g
   transform="matrix(0.88631,0,0,0.88631,12.6097,-6.54482)"
   id="g9"
   style="fill:#000000;fill-opacity:1">
        <g
   transform="matrix(-0.5,0.866025,-0.866025,-0.5,759.057,230.572)"
   id="g7"
   style="fill:#000000;fill-opacity:1">
            <path
   d="M39.861,292.389L252.394,683.488L292.364,660.314C294.134,658.857 295.208,656.342 295.208,652.983L295.208,359.022C295.208,351.236 289.444,341.333 282.618,337.392L184.638,280.823C151.155,261.492 120.263,256.158 95.579,262.91C89.68,264.523 84.136,266.827 78.996,269.795L39.861,292.389Z"
   style="fill:#000000;fill-rule:nonzero;fill-opacity:1"
   id="path6" />
        </g>
        <g
   transform="matrix(1.73201,-0.999976,-1.99308,-1.1507,430.502,39.9517)"
   id="g8"
   style="fill:#000000;fill-opacity:1">
            <path
   d="M0,0.383C0,38.934 -37.894,70.297 -84.473,70.297L-141.043,70.297C-143.283,70.297 -145.325,69.374 -146.67,67.956C-147.692,66.879 -148.312,65.517 -148.312,64.057L-148.312,-63.674C-148.312,-67.057 -144.984,-69.914 -141.043,-69.914L-84.473,-69.914C-65.141,-69.914 -47.305,-64.482 -33.054,-55.356C-12.967,-42.493 0,-22.291 0,0.383"
   style="fill:#000000;fill-rule:nonzero;fill-opacity:1"
   id="path7" />
        </g>
    </g>
    <defs
   id="defs37">
        <linearGradient
   id="_Linear1"
   x1="0"
   y1="0"
   x2="1"
   y2="0"
   gradientUnits="userSpaceOnUse"
   gradientTransform="matrix(222.028,385.617,-385.617,222.028,30.3658,297.871)"><stop
     offset="0"
     style="stop-color:rgb(130,71,55);stop-opacity:1"
     id="stop9" /><stop
     offset="0.08"
     style="stop-color:rgb(187,86,58);stop-opacity:1"
     id="stop10" /><stop
     offset="0.36"
     style="stop-color:rgb(192,88,58);stop-opacity:1"
     id="stop11" /><stop
     offset="0.39"
     style="stop-color:rgb(220,100,64);stop-opacity:1"
     id="stop12" /><stop
     offset="0.42"
     style="stop-color:rgb(191,87,56);stop-opacity:1"
     id="stop13" /><stop
     offset="0.98"
     style="stop-color:rgb(192,86,55);stop-opacity:1"
     id="stop14" /><stop
     offset="1"
     style="stop-color:rgb(146,70,43);stop-opacity:1"
     id="stop15" /></linearGradient>
        <linearGradient
   id="_Linear2"
   x1="0"
   y1="0"
   x2="1"
   y2="0"
   gradientUnits="userSpaceOnUse"
   gradientTransform="matrix(-89.4459,-99.5026,-80.5725,32.3066,-41.2418,47.3881)"><stop
     offset="0"
     style="stop-color:rgb(197,84,48);stop-opacity:1"
     id="stop16" /><stop
     offset="1"
     style="stop-color:rgb(245,107,59);stop-opacity:1"
     id="stop17" /></linearGradient>
        <linearGradient
   id="_Linear3"
   x1="0"
   y1="0"
   x2="1"
   y2="0"
   gradientUnits="userSpaceOnUse"
   gradientTransform="matrix(222.028,385.617,-385.617,222.028,30.3658,297.871)"><stop
     offset="0"
     style="stop-color:rgb(3,80,125);stop-opacity:1"
     id="stop18" /><stop
     offset="0.08"
     style="stop-color:rgb(1,143,218);stop-opacity:1"
     id="stop19" /><stop
     offset="0.36"
     style="stop-color:rgb(0,151,229);stop-opacity:1"
     id="stop20" /><stop
     offset="0.39"
     style="stop-color:rgb(1,154,233);stop-opacity:1"
     id="stop21" /><stop
     offset="0.42"
     style="stop-color:rgb(1,135,206);stop-opacity:1"
     id="stop22" /><stop
     offset="1"
     style="stop-color:rgb(4,64,98);stop-opacity:1"
     id="stop23" /></linearGradient>
        <linearGradient
   id="_Linear4"
   x1="0"
   y1="0"
   x2="1"
   y2="0"
   gradientUnits="userSpaceOnUse"
   gradientTransform="matrix(-113.119,-78.5512,-39.0658,68.1573,-17.569,26.4368)"><stop
     offset="0"
     style="stop-color:rgb(28,134,200);stop-opacity:1"
     id="stop24" /><stop
     offset="1"
     style="stop-color:rgb(58,174,249);stop-opacity:1"
     id="stop25" /></linearGradient>
        <linearGradient
   id="_Linear5"
   x1="0"
   y1="0"
   x2="1"
   y2="0"
   gradientUnits="userSpaceOnUse"
   gradientTransform="matrix(222.028,385.617,-385.617,222.028,165.991,219.568)"><stop
     offset="0"
     style="stop-color:rgb(1,37,2);stop-opacity:1"
     id="stop26" /><stop
     offset="0.04"
     style="stop-color:rgb(10,108,31);stop-opacity:1"
     id="stop27" /><stop
     offset="0.09"
     style="stop-color:rgb(13,134,41);stop-opacity:1"
     id="stop28" /><stop
     offset="0.36"
     style="stop-color:rgb(14,135,42);stop-opacity:1"
     id="stop29" /><stop
     offset="0.37"
     style="stop-color:rgb(16,145,46);stop-opacity:1"
     id="stop30" /><stop
     offset="0.39"
     style="stop-color:rgb(17,148,47);stop-opacity:1"
     id="stop31" /><stop
     offset="0.4"
     style="stop-color:rgb(16,145,46);stop-opacity:1"
     id="stop32" /><stop
     offset="0.42"
     style="stop-color:rgb(14,135,42);stop-opacity:1"
     id="stop33" /><stop
     offset="0.99"
     style="stop-color:rgb(15,134,40);stop-opacity:1"
     id="stop34" /><stop
     offset="1"
     style="stop-color:rgb(3,67,14);stop-opacity:1"
     id="stop35" /></linearGradient>
        <linearGradient
   id="_Linear6"
   x1="0"
   y1="0"
   x2="1"
   y2="0"
   gradientUnits="userSpaceOnUse"
   gradientTransform="matrix(-53.8725,-56.0173,-43.3297,21.7167,-40.6886,52.2481)"><stop
     offset="0"
     style="stop-color:rgb(20,127,47);stop-opacity:1"
     id="stop36" /><stop
     offset="1"
     style="stop-color:rgb(27,173,58);stop-opacity:1"
     id="stop37" /></linearGradient>
    </defs>
</svg>
