<?xml version="1.0" encoding="UTF-8" standalone="no"?>
<svg
   clip-rule="evenodd"
   fill-rule="evenodd"
   stroke-linecap="square"
   stroke-miterlimit="10"
   version="1.1"
   viewBox="0 0 256 256"
   xml:space="preserve"
   id="svg59"
   sodipodi:docname="logo_square.svg"
   width="256"
   height="256"
   inkscape:version="1.2.1 (9c6d41e410, 2022-07-14)"
   inkscape:export-filename="..\img\logo_square.png"
   inkscape:export-xdpi="96"
   inkscape:export-ydpi="96"
   xmlns:inkscape="http://www.inkscape.org/namespaces/inkscape"
   xmlns:sodipodi="http://sodipodi.sourceforge.net/DTD/sodipodi-0.dtd"
   xmlns="http://www.w3.org/2000/svg"
   xmlns:svg="http://www.w3.org/2000/svg"
   xmlns:serif="http://www.serif.com/"><sodipodi:namedview
   id="namedview61"
   pagecolor="#505050"
   bordercolor="#ffffff"
   borderopacity="1"
   inkscape:showpageshadow="0"
   inkscape:pageopacity="0"
   inkscape:pagecheckerboard="1"
   inkscape:deskcolor="#505050"
   showgrid="false"
   inkscape:zoom="1.1309981"
   inkscape:cx="230.76962"
   inkscape:cy="206.8969"
   inkscape:window-width="1920"
   inkscape:window-height="1017"
   inkscape:window-x="-8"
   inkscape:window-y="-8"
   inkscape:window-maximized="1"
   inkscape:current-layer="svg59"
   showguides="true"><sodipodi:guide
     position="-474.11811,-464"
     orientation="0,1"
     id="guide453"
     inkscape:locked="false"
     inkscape:label=""
     inkscape:color="rgb(0,134,229)" /><sodipodi:guide
     position="-193.91386,-252"
     orientation="0,1"
     id="guide455"
     inkscape:locked="false"
     inkscape:label=""
     inkscape:color="rgb(0,134,229)" /><sodipodi:guide
     position="-103.72137,-676"
     orientation="0,1"
     id="guide457"
     inkscape:locked="false"
     inkscape:label=""
     inkscape:color="rgb(0,134,229)" /><sodipodi:guide
     position="507,377.7599"
     orientation="-1,0"
     id="guide459"
     inkscape:locked="false"
     inkscape:label=""
     inkscape:color="rgb(0,134,229)" /><sodipodi:guide
     position="2053,271.7837"
     orientation="-1,0"
     id="guide461"
     inkscape:locked="false"
     inkscape:label=""
     inkscape:color="rgb(0,134,229)" /><sodipodi:guide
     position="468.66744,-140.2609"
     orientation="-0.8660254,-0.5"
     id="guide587"
     inkscape:locked="false"
     inkscape:label=""
     inkscape:color="rgb(0,134,229)" /><sodipodi:guide
     position="533.97383,-617.63515"
     orientation="-0.91354546,0.40673664"
     id="guide589"
     inkscape:locked="false"
     inkscape:label=""
     inkscape:color="rgb(0,134,229)" /><sodipodi:guide
     position="373.54052,-411.97301"
     orientation="0,-1"
     id="guide591"
     inkscape:locked="false" /></sodipodi:namedview><defs
   id="defs13"><filter
     id="filter712"
     x="-0.008323703"
     y="-0.065386064"
     width="1.025896"
     height="1.2034233"
     color-interpolation-filters="sRGB"><feFlood
       flood-color="rgb(0,0,0)"
       flood-opacity=".50196"
       result="flood"
       id="feFlood2" /><feComposite
       in="flood"
       in2="SourceGraphic"
       operator="in"
       result="composite1"
       id="feComposite4" /><feGaussianBlur
       in="composite1"
       result="blur"
       stdDeviation="1.5"
       id="feGaussianBlur6" /><feOffset
       dx="4"
       dy="4"
       result="offset"
       id="feOffset8" /><feComposite
       in="SourceGraphic"
       in2="offset"
       result="composite2"
       id="feComposite10" /></filter></defs>
    <g
   serif:id="Layer 2"
   id="g31"
   transform="matrix(1.7168418,0,0,1.7168418,-730.41236,-1115.9785)">
        <path
   d="M 264.15175,318.44693 495.81704,719.70297 2507.3072,718.89043 V 318.39574 Z"
   fill="#94bf00"
   fill-rule="nonzero"
   id="path15"
   sodipodi:nodetypes="ccccc"
   style="stroke-width:2.04773" />
        <path
   d="m 495.77694,719.66047 0.0401,0.0425 -274.5322,616.60943 2600.32856,-3.8009 V 719.67934 H 495.76985 Z"
   fill="#006699"
   fill-rule="nonzero"
   id="path17"
   sodipodi:nodetypes="ccccccc"
   style="stroke-width:2.3585" />
        <g
   serif:id="Layer 6"
   id="g21"
   transform="matrix(1.1199224,0,0,1.1199224,359.94936,629.69708)"
   style="display:inline">
            <path
   d="M -524.70371,-406.18156 V 567.15156 L -95.623641,567.62875 121.31883,80.367972 -159.28224,-405.64734 Z"
   fill="#f7931e"
   fill-rule="nonzero"
   id="path19"
   sodipodi:nodetypes="cccccc"
   style="stroke-width:2.99046" />
        </g>
        <g
   fill="none"
   stroke="#ffffff"
   stroke-width="2px"
   serif:id="Layer 8"
   id="g29"
   transform="translate(436.05401,639.34904)"
   style="display:inline">
            <path
   d="M 1195.6477,80.353933 59.763029,80.353932"
   id="path23"
   style="stroke-width:2.50395px"
   sodipodi:nodetypes="cc" />
            <path
   d="M 59.646401,80.059734 -138.35487,-262.79634"
   stroke-linecap="round"
   id="path25"
   sodipodi:nodetypes="cc" />
            <path
   d="M -139.82597,528.63816 59.763029,80.353932 v 0"
   stroke-linecap="round"
   stroke-linejoin="round"
   id="path27"
   sodipodi:nodetypes="ccc" />
        </g>
    </g>
    <g
   opacity="0.55"
   id="g39"
   transform="matrix(1.7168418,0,0,1.7168418,18.223392,-18.317336)"
   style="display:inline">
        
            <path
   d="m 121.82768,80.850645 -9.898,22.373995 c -2.232,5.046 -4.326,8.892 -6.284,11.538 -2.641,3.556 -5.884999,6.602 -9.732999,9.136 -3.848,2.535 -8.038,4.463 -12.571,5.784 -4.533,1.32 -9.693,1.979 -15.481,1.975 -5.086,-0.004 -9.195,-0.627 -12.327,-1.87 -3.824,-1.52 -6.505,-3.687 -8.043,-6.501 -1.168,-2.124 -1.543,-4.993 -1.125,-8.606 0.324,-2.702 1.486,-6.315 3.487,-10.836 l 10.19,-23.036995 z m -15.867,12.234 -40.922999,-0.028 -4.044,9.139995 c -1.512,3.419 -2.407,5.887 -2.685,7.404 -0.372,1.985 -0.244,3.633 0.385,4.944 0.629,1.31 2.144,2.38 4.546,3.209 2.401,0.829 5.99,1.245 10.767,1.249 4.776,0.003 8.626,-0.408 11.549,-1.234 2.922,-0.825 5.43,-1.982 7.521,-3.469 2.092,-1.488 3.897,-3.376 5.415,-5.664 1.149,-1.71 2.827999,-5.059 5.034999,-10.049995 z"
   fill="#ffffff"
   fill-rule="nonzero"
   id="path33"
   inkscape:transform-center-x="-48.194329"
   inkscape:transform-center-y="51.192062" />
        
        
            <path
   d="m 28.984701,25.815488 25.644841,0.135 c 5.782408,0.03 10.388425,0.398 13.816021,1.102 4.61203,0.956 9.054916,2.635 13.327643,5.036 4.273728,2.401 8.157693,5.333 11.653909,8.797 3.495217,3.464 6.693355,7.729 9.594415,12.796 2.54869,4.452 4.03493,8.285 4.45774,11.499 0.51453,3.927 -0.14223,7.099 -1.97127,9.517 -1.37703,1.832 -3.84066,3.253 -7.388885,4.264 -2.659818,0.747 -6.581924,1.106 -11.764292,1.079 l -26.402895,-0.139 z m 19.269716,9.223 20.511304,35.824 10.475749,0.055 c 3.918287,0.021 6.648133,-0.137 8.189567,-0.472 2.021125,-0.431 3.480038,-1.171 4.375726,-2.221 0.895701,-1.049 1.124066,-2.783 0.684107,-5.201 -0.438945,-2.417 -1.854926,-5.717 -4.248916,-9.898 -2.39399,-4.181 -4.705785,-7.394 -6.935358,-9.637 -2.229574,-2.243 -4.556468,-3.996 -6.981698,-5.26 -2.424215,-1.263 -5.074937,-2.123 -7.951167,-2.58 -2.156825,-0.354 -6.095456,-0.547 -11.814864,-0.577 z"
   fill="#ffffff"
   fill-rule="nonzero"
   id="path35"
   inkscape:transform-center-x="-16.520688"
   inkscape:transform-center-y="-54.074515" />
        
        
            <path
   d="M 31.908063,141.98158 19.267335,119.81045 c -2.849742,-4.99996 -4.849233,-9.20387 -5.998494,-12.6107 -1.538451,-4.58934 -2.423222,-9.499389 -2.654315,-14.730156 -0.231093,-5.230768 0.149577,-10.470571 1.142991,-15.718475 0.993395,-5.246905 2.766272,-10.756206 5.318633,-16.527908 2.243202,-5.070902 4.526293,-8.826391 6.85027,-11.266532 2.838935,-2.980182 5.666328,-4.46353 8.482187,-4.450045 2.128523,0.0027 4.47403,1.204774 7.034499,3.607278 1.911215,1.809501 4.143752,4.954067 6.697595,9.434695 L 59.155672,80.37559 Z M 29.601683,119.42952 47.648769,78.624468 42.484932,69.56813 c -1.931096,-3.388124 -3.412199,-5.6379 -4.442333,-6.748398 -1.345206,-1.46262 -2.653501,-2.240216 -3.925866,-2.33372 -1.273387,-0.09243 -2.752999,0.830655 -4.440862,2.770403 -1.68786,1.939746 -3.5855,5.291005 -5.691916,10.053706 -2.106415,4.762702 -3.48902,8.82811 -4.14983,12.197361 -0.65981,3.369184 -0.885473,6.505682 -0.67599,9.409426 0.208466,2.904814 0.847912,5.743052 1.918339,8.514712 0.792685,2.08619 2.598431,5.60184 5.41724,10.54696 z"
   fill="#ffffff"
   fill-rule="nonzero"
   id="path37"
   inkscape:transform-center-x="48.504282"
   inkscape:transform-center-y="25.747043" />
        
    </g>
    
</svg>
