<?xml version="1.0" encoding="UTF-8" standalone="no"?>
<svg
   width="150"
   height="150"
   clip-rule="evenodd"
   fill-rule="evenodd"
   stroke-linecap="square"
   stroke-miterlimit="10"
   version="1.1"
   viewBox="0 0 128 128"
   xml:space="preserve"
   id="svg35"
   sodipodi:docname="logo-square.svg"
   inkscape:version="1.2.1 (9c6d41e410, 2022-07-14)"
   inkscape:export-filename="..\img\logo-square.png"
   inkscape:export-xdpi="96"
   inkscape:export-ydpi="96"
   xmlns:inkscape="http://www.inkscape.org/namespaces/inkscape"
   xmlns:sodipodi="http://sodipodi.sourceforge.net/DTD/sodipodi-0.dtd"
   xmlns="http://www.w3.org/2000/svg"
   xmlns:svg="http://www.w3.org/2000/svg"
   xmlns:serif="http://www.serif.com/"><sodipodi:namedview
   id="namedview37"
   pagecolor="#505050"
   bordercolor="#ffffff"
   borderopacity="1"
   inkscape:showpageshadow="0"
   inkscape:pageopacity="0"
   inkscape:pagecheckerboard="1"
   inkscape:deskcolor="#505050"
   showgrid="false"
   inkscape:zoom="4.3558537"
   inkscape:cx="40.175822"
   inkscape:cy="73.693936"
   inkscape:window-width="1920"
   inkscape:window-height="1017"
   inkscape:window-x="1912"
   inkscape:window-y="-8"
   inkscape:window-maximized="1"
   inkscape:current-layer="svg35" /><defs
   id="defs5"><clipPath
     id="clipPath1177"><rect
       width="128"
       height="128"
       stroke-width="1.034"
       id="rect2"
       x="0"
       y="0" /></clipPath></defs>
    
    
    <g
   clip-path="url(#clipPath1177)"
   clip-rule="evenodd"
   fill-rule="evenodd"
   stroke-linecap="square"
   stroke-miterlimit="10"
   id="g33">
        
        
    <g
   serif:id="Layer 2"
   id="g23">
            <path
   d="M 21.5,0 55,64 h 73 V 0 Z"
   fill="#94bf00"
   fill-rule="nonzero"
   id="path7" />
            <path
   d="M 55,64 21.5,128 H 128 V 64 Z"
   fill="#006699"
   fill-rule="nonzero"
   id="path9" />
            <g
   serif:id="Layer 6"
   id="g13">
                <path
   d="M 0,0 V 128 H 21.5 L 55,64 21.5,0 Z"
   fill="#f7931e"
   fill-rule="nonzero"
   stroke-width="0.63075"
   id="path11" />
            </g>
            <g
   fill="none"
   stroke="#ffffff"
   stroke-linecap="square"
   stroke-width="2px"
   serif:id="Layer 8"
   id="g21">
                <path
   d="M 128,64 H 55"
   id="path15" />
                <path
   d="M 55,64 21.5,0"
   id="path17" />
                <path
   d="M 21.5,128 55,64"
   stroke-linejoin="round"
   id="path19" />
            </g>
        </g><g
   transform="translate(-2.0009,6.0142)"
   fill="#ffffff"
   opacity="0.55"
   id="g31">
            
            
            
        <path
   d="M 28.748,4.0995 54.393,4.059931 q 8.6748,-0.013384 13.765,1.0087 6.8472,1.3872 13.077,4.9454 6.2302,3.5583 11.223,8.7369 4.9731,5.1419 8.9426,12.713 3.4878,6.6522 3.879,11.47 0.47597,5.8844 -2.4514,9.5304 -2.2048,2.7621 -7.6053,4.3153 -4.0481,1.1465 -11.822,1.1585 l -26.403,0.04074 z m 18.81,9.093 18.711,35.687 10.476,-0.01617 q 5.878,-0.0091 8.2154,-0.52763 3.0662,-0.66681 4.4655,-2.2506 1.4468,-1.5839 0.98042,-5.1878 -0.4856,-3.6407 -3.7614,-9.8887 -3.2758,-6.2479 -6.4515,-9.5902 -3.1757,-3.3423 -6.7181,-5.2127 -3.5425,-1.8704 -7.8238,-2.5259 -3.2088,-0.51 -11.789,-0.49676 z"
   stroke-width="0.88094"
   id="path25" /><path
   d="m 118.78,57.976 -11.723,22.385 q -3.9656,7.572 -7.2259,11.544 -4.3969,5.338 -10.478,9.1455 -6.0815,3.8076 -13.064,5.7949 -6.9402,1.9873 -15.622,1.9892 -7.6279,0.002 -12.173,-1.8592 -5.5511,-2.2743 -7.5129,-6.4939 -1.4921,-3.1854 -0.42338,-8.6054 0.81722,-4.0547 4.3711,-10.841 l 12.07,-23.047 z m -16.866,12.25 -40.921,0.0087 -4.7891,9.1443 q -2.6871,5.1308 -3.2889,7.4064 -0.80167,2.979 -0.008,4.9233 0.77199,1.9857 4.2519,3.2261 3.5221,1.2404 10.686,1.2389 7.1643,-0.0015 11.649,-1.2436 4.4851,-1.2421 7.8046,-3.4769 3.3195,-2.2348 5.8767,-5.6693 1.9335,-2.5655 5.8558,-10.055 z"
   stroke-width="0.92332"
   id="path27" /><path
   d="M 26.493,116.25 15.127,94.54 Q 11.2822,87.1962 9.848,82.231 7.9285,75.5439 8.0142,67.997 q 0.085637,-7.5473 2.0113,-15.078 1.9049,-7.4907 6.1917,-15.678 3.7665,-7.194 7.438,-10.595 4.4851,-4.1522 8.6882,-3.9938 3.1785,0.10905 6.8047,3.6967 2.704,2.7006 6.1496,9.2819 l 11.702,22.352 z M 25.4349,94.515 45.6409,55.922 40.9978,47.0533 q -2.6052,-4.9761 -4.0521,-6.6268 -1.8873,-2.1739 -3.7695,-2.351 -1.9033,-0.21716 -4.5729,2.4741 -2.6904,2.731 -6.2281,9.4878 -3.5376,6.7568 -4.801,11.578 -1.2634,4.8208 -1.1901,9.0149 0.07324,4.1941 1.4425,8.2403 1.0113,3.0445 4.814,10.308 z"
   stroke-width="0.83424"
   id="path29" /></g></g>
        
    
    
</svg>
